<svg xmlns="http://www.w3.org/2000/svg" fill="none" viewBox="0 0 14 14"><path fill="currentColor" fill-rule="evenodd" clip-rule="evenodd" d="M3.5924 6.9988 L3.6064 6.9984 L3.6912 6.9948 L3.7051 6.9940 L3.7893 6.9881 L3.8032 6.9870 L3.8868 6.9788 L3.9006 6.9772 L3.9835 6.9668 L3.9972 6.9648 L4.0794 6.9522 L4.0930 6.9498 L4.1744 6.9349 L4.1880 6.9323 L4.2686 6.9152 L4.2821 6.9121 L4.3619 6.8929 L4.3752 6.8895 L4.4541 6.8682 L4.4673 6.8644 L4.5454 6.8410 L4.5584 6.8369 L4.6356 6.8115 L4.6485 6.8070 L4.7247 6.7796 L4.7374 6.7748 L4.8127 6.7453 L4.8253 6.7402 L4.8995 6.7088 L4.9119 6.7034 L4.9851 6.6700 L4.9973 6.6643 L5.0694 6.6291 L5.0814 6.6230 L5.1525 6.5860 L5.1642 6.5796 L5.2342 6.5407 L5.2457 6.5341 L5.3145 6.4934 L5.3259 6.4865 L5.3934 6.4440 L5.4046 6.4368 L5.4709 6.3926 L5.4819 6.3851 L5.5470 6.3392 L5.5577 6.3315 L5.6215 6.2839 L5.6320 6.2759 L5.6945 6.2267 L5.7047 6.2184 L5.7659 6.1676 L5.7759 6.1590 L5.8356 6.1067 L5.8454 6.0979 L5.9038 6.0440 L5.9133 6.0349 L5.9702 5.9795 L5.9795 5.9702 L6.0349 5.9133 L6.0440 5.9038 L6.0979 5.8454 L6.1067 5.8356 L6.1590 5.7759 L6.1676 5.7659 L6.2184 5.7047 L6.2267 5.6945 L6.2759 5.6320 L6.2839 5.6215 L6.3315 5.5577 L6.3392 5.5470 L6.3851 5.4819 L6.3926 5.4709 L6.4368 5.4046 L6.4440 5.3934 L6.4865 5.3259 L6.4934 5.3145 L6.5341 5.2457 L6.5407 5.2342 L6.5796 5.1642 L6.5860 5.1525 L6.6230 5.0814 L6.6291 5.0694 L6.6643 4.9973 L6.6700 4.9851 L6.7034 4.9119 L6.7088 4.8995 L6.7402 4.8253 L6.7453 4.8127 L6.7748 4.7374 L6.7796 4.7247 L6.8070 4.6485 L6.8115 4.6356 L6.8369 4.5584 L6.8410 4.5454 L6.8644 4.4673 L6.8682 4.4541 L6.8895 4.3752 L6.8929 4.3619 L6.9121 4.2821 L6.9152 4.2686 L6.9323 4.1880 L6.9349 4.1744 L6.9498 4.0930 L6.9522 4.0794 L6.9648 3.9972 L6.9668 3.9835 L6.9772 3.9006 L6.9788 3.8868 L6.9870 3.8032 L6.9881 3.7893 L6.9940 3.7051 L6.9948 3.6912 L6.9984 3.6064 L6.9988 3.5924 L7.0000 3.5070 L7.0000 3.4930 L6.9988 3.4076 L6.9984 3.3936 L6.9948 3.3088 L6.9940 3.2949 L6.9881 3.2107 L6.9870 3.1968 L6.9788 3.1132 L6.9772 3.0994 L6.9668 3.0165 L6.9648 3.0028 L6.9522 2.9206 L6.9498 2.9070 L6.9349 2.8256 L6.9323 2.8120 L6.9152 2.7314 L6.9121 2.7179 L6.8929 2.6381 L6.8895 2.6248 L6.8682 2.5459 L6.8644 2.5327 L6.8410 2.4546 L6.8369 2.4416 L6.8115 2.3644 L6.8070 2.3515 L6.7796 2.2753 L6.7748 2.2626 L6.7453 2.1873 L6.7402 2.1747 L6.7088 2.1005 L6.7034 2.0881 L6.6700 2.0149 L6.6643 2.0027 L6.6291 1.9306 L6.6230 1.9186 L6.5860 1.8475 L6.5796 1.8358 L6.5407 1.7658 L6.5341 1.7543 L6.4934 1.6855 L6.4865 1.6741 L6.4440 1.6066 L6.4368 1.5954 L6.3926 1.5291 L6.3851 1.5181 L6.3392 1.4530 L6.3315 1.4423 L6.2839 1.3785 L6.2759 1.3680 L6.2267 1.3055 L6.2184 1.2953 L6.1676 1.2341 L6.1590 1.2241 L6.1067 1.1644 L6.0979 1.1546 L6.0440 1.0962 L6.0349 1.0867 L5.9795 1.0298 L5.9702 1.0205 L5.9133 0.9651 L5.9038 0.9560 L5.8454 0.9021 L5.8356 0.8933 L5.7759 0.8410 L5.7659 0.8324 L5.7047 0.7816 L5.6945 0.7733 L5.6320 0.7241 L5.6215 0.7161 L5.5577 0.6685 L5.5470 0.6608 L5.4819 0.6149 L5.4709 0.6074 L5.4046 0.5632 L5.3934 0.5560 L5.3259 0.5135 L5.3145 0.5066 L5.2457 0.4659 L5.2342 0.4593 L5.1642 0.4204 L5.1525 0.4140 L5.0814 0.3770 L5.0694 0.3709 L4.9973 0.3357 L4.9851 0.3300 L4.9119 0.2966 L4.8995 0.2912 L4.8253 0.2598 L4.8127 0.2547 L4.7374 0.2252 L4.7247 0.2204 L4.6485 0.1930 L4.6356 0.1885 L4.5584 0.1631 L4.5454 0.1590 L4.4673 0.1356 L4.4541 0.1318 L4.3752 0.1105 L4.3619 0.1071 L4.2821 0.0879 L4.2686 0.0848 L4.1880 0.0677 L4.1744 0.0651 L4.0930 0.0502 L4.0794 0.0478 L3.9972 0.0352 L3.9835 0.0332 L3.9006 0.0228 L3.8868 0.0212 L3.8032 0.0130 L3.7893 0.0119 L3.7051 0.0060 L3.6912 0.0052 L3.6064 0.0016 L3.5924 0.0012 L3.5070 0.0000 L3.4930 0.0000 L3.4076 0.0012 L3.3936 0.0016 L3.3088 0.0052 L3.2949 0.0060 L3.2107 0.0119 L3.1968 0.0130 L3.1132 0.0212 L3.0994 0.0228 L3.0165 0.0332 L3.0028 0.0352 L2.9206 0.0478 L2.9070 0.0502 L2.8256 0.0651 L2.8120 0.0677 L2.7314 0.0848 L2.7179 0.0879 L2.6381 0.1071 L2.6248 0.1105 L2.5459 0.1318 L2.5327 0.1356 L2.4546 0.1590 L2.4416 0.1631 L2.3644 0.1885 L2.3515 0.1930 L2.2753 0.2204 L2.2626 0.2252 L2.1873 0.2547 L2.1747 0.2598 L2.1005 0.2912 L2.0881 0.2966 L2.0149 0.3300 L2.0027 0.3357 L1.9306 0.3709 L1.9186 0.3770 L1.8475 0.4140 L1.8358 0.4204 L1.7658 0.4593 L1.7543 0.4659 L1.6855 0.5066 L1.6741 0.5135 L1.6066 0.5560 L1.5954 0.5632 L1.5291 0.6074 L1.5181 0.6149 L1.4530 0.6608 L1.4423 0.6685 L1.3785 0.7161 L1.3680 0.7241 L1.3055 0.7733 L1.2953 0.7816 L1.2341 0.8324 L1.2241 0.8410 L1.1644 0.8933 L1.1546 0.9021 L1.0962 0.9560 L1.0867 0.9651 L1.0298 1.0205 L1.0205 1.0298 L0.9651 1.0867 L0.9560 1.0962 L0.9021 1.1546 L0.8933 1.1644 L0.8410 1.2241 L0.8324 1.2341 L0.7816 1.2953 L0.7733 1.3055 L0.7241 1.3680 L0.7161 1.3785 L0.6685 1.4423 L0.6608 1.4530 L0.6149 1.5181 L0.6074 1.5291 L0.5632 1.5954 L0.5560 1.6066 L0.5135 1.6741 L0.5066 1.6855 L0.4659 1.7543 L0.4593 1.7658 L0.4204 1.8358 L0.4140 1.8475 L0.3770 1.9186 L0.3709 1.9306 L0.3357 2.0027 L0.3300 2.0149 L0.2966 2.0881 L0.2912 2.1005 L0.2598 2.1747 L0.2547 2.1873 L0.2252 2.2626 L0.2204 2.2753 L0.1930 2.3515 L0.1885 2.3644 L0.1631 2.4416 L0.1590 2.4546 L0.1356 2.5327 L0.1318 2.5459 L0.1105 2.6248 L0.1071 2.6381 L0.0879 2.7179 L0.0848 2.7314 L0.0677 2.8120 L0.0651 2.8256 L0.0502 2.9070 L0.0478 2.9206 L0.0352 3.0028 L0.0332 3.0165 L0.0228 3.0994 L0.0212 3.1132 L0.0130 3.1968 L0.0119 3.2107 L0.0060 3.2949 L0.0052 3.3088 L0.0016 3.3936 L0.0012 3.4076 L0.0000 3.4930 L0.0000 3.5070 L0.0012 3.5924 L0.0016 3.6064 L0.0052 3.6912 L0.0060 3.7051 L0.0119 3.7893 L0.0130 3.8032 L0.0212 3.8868 L0.0228 3.9006 L0.0332 3.9835 L0.0352 3.9972 L0.0478 4.0794 L0.0502 4.0930 L0.0651 4.1744 L0.0677 4.1880 L0.0848 4.2686 L0.0879 4.2821 L0.1071 4.3619 L0.1105 4.3752 L0.1318 4.4541 L0.1356 4.4673 L0.1590 4.5454 L0.1631 4.5584 L0.1885 4.6356 L0.1930 4.6485 L0.2204 4.7247 L0.2252 4.7374 L0.2547 4.8127 L0.2598 4.8253 L0.2912 4.8995 L0.2966 4.9119 L0.3300 4.9851 L0.3357 4.9973 L0.3709 5.0694 L0.3770 5.0814 L0.4140 5.1525 L0.4204 5.1642 L0.4593 5.2342 L0.4659 5.2457 L0.5066 5.3145 L0.5135 5.3259 L0.5560 5.3934 L0.5632 5.4046 L0.6074 5.4709 L0.6149 5.4819 L0.6608 5.5470 L0.6685 5.5577 L0.7161 5.6215 L0.7241 5.6320 L0.7733 5.6945 L0.7816 5.7047 L0.8324 5.7659 L0.8410 5.7759 L0.8933 5.8356 L0.9021 5.8454 L0.9560 5.9038 L0.9651 5.9133 L1.0205 5.9702 L1.0298 5.9795 L1.0867 6.0349 L1.0962 6.0440 L1.1546 6.0979 L1.1644 6.1067 L1.2241 6.1590 L1.2341 6.1676 L1.2953 6.2184 L1.3055 6.2267 L1.3680 6.2759 L1.3785 6.2839 L1.4423 6.3315 L1.4530 6.3392 L1.5181 6.3851 L1.5291 6.3926 L1.5954 6.4368 L1.6066 6.4440 L1.6741 6.4865 L1.6855 6.4934 L1.7543 6.5341 L1.7658 6.5407 L1.8358 6.5796 L1.8475 6.5860 L1.9186 6.6230 L1.9306 6.6291 L2.0027 6.6643 L2.0149 6.6700 L2.0881 6.7034 L2.1005 6.7088 L2.1747 6.7402 L2.1873 6.7453 L2.2626 6.7748 L2.2753 6.7796 L2.3515 6.8070 L2.3644 6.8115 L2.4416 6.8369 L2.4546 6.8410 L2.5327 6.8644 L2.5459 6.8682 L2.6248 6.8895 L2.6381 6.8929 L2.7179 6.9121 L2.7314 6.9152 L2.8120 6.9323 L2.8256 6.9349 L2.9070 6.9498 L2.9206 6.9522 L3.0028 6.9648 L3.0165 6.9668 L3.0994 6.9772 L3.1132 6.9788 L3.1968 6.9870 L3.2107 6.9881 L3.2949 6.9940 L3.3088 6.9948 L3.3936 6.9984 L3.4076 6.9988 L3.4930 7.0000 L3.5070 7.0000 L3.5924 6.9988 Z M3.3577 5.9960 L3.2874 5.9911 L3.2177 5.9842 L3.1487 5.9755 L3.0802 5.9649 L3.0125 5.9525 L2.9454 5.9383 L2.8790 5.9223 L2.8133 5.9046 L2.7483 5.8851 L2.6841 5.8639 L2.6207 5.8411 L2.5581 5.8166 L2.4963 5.7904 L2.4353 5.7627 L2.3752 5.7334 L2.3160 5.7025 L2.2578 5.6701 L2.2005 5.6362 L2.1442 5.6008 L2.0889 5.5640 L2.0346 5.5257 L1.9814 5.4860 L1.9293 5.4450 L1.8783 5.4026 L1.8284 5.3589 L1.7797 5.3140 L1.7323 5.2677 L1.6860 5.2203 L1.6411 5.1716 L1.5974 5.1217 L1.5550 5.0707 L1.5140 5.0186 L1.4743 4.9654 L1.4360 4.9111 L1.3992 4.8558 L1.3638 4.7995 L1.3299 4.7422 L1.2975 4.6840 L1.2666 4.6248 L1.2373 4.5647 L1.2096 4.5037 L1.1834 4.4419 L1.1589 4.3793 L1.1361 4.3159 L1.1149 4.2517 L1.0954 4.1867 L1.0777 4.1210 L1.0617 4.0546 L1.0475 3.9875 L1.0351 3.9198 L1.0245 3.8513 L1.0158 3.7823 L1.0089 3.7126 L1.0040 3.6423 L1.0010 3.5714 L1.0000 3.5000 L1.0010 3.4286 L1.0040 3.3577 L1.0089 3.2874 L1.0158 3.2177 L1.0245 3.1487 L1.0351 3.0802 L1.0475 3.0125 L1.0617 2.9454 L1.0777 2.8790 L1.0954 2.8133 L1.1149 2.7483 L1.1361 2.6841 L1.1589 2.6207 L1.1834 2.5581 L1.2096 2.4963 L1.2373 2.4353 L1.2666 2.3752 L1.2975 2.3160 L1.3299 2.2578 L1.3638 2.2005 L1.3992 2.1442 L1.4360 2.0889 L1.4743 2.0346 L1.5140 1.9814 L1.5550 1.9293 L1.5974 1.8783 L1.6411 1.8284 L1.6860 1.7797 L1.7323 1.7323 L1.7797 1.6860 L1.8284 1.6411 L1.8783 1.5974 L1.9293 1.5550 L1.9814 1.5140 L2.0346 1.4743 L2.0889 1.4360 L2.1442 1.3992 L2.2005 1.3638 L2.2578 1.3299 L2.3160 1.2975 L2.3752 1.2666 L2.4353 1.2373 L2.4963 1.2096 L2.5581 1.1834 L2.6207 1.1589 L2.6841 1.1361 L2.7483 1.1149 L2.8133 1.0954 L2.8790 1.0777 L2.9454 1.0617 L3.0125 1.0475 L3.0802 1.0351 L3.1487 1.0245 L3.2177 1.0158 L3.2874 1.0089 L3.3577 1.0040 L3.4286 1.0010 L3.5000 1.0000 L3.5714 1.0010 L3.6423 1.0040 L3.7126 1.0089 L3.7823 1.0158 L3.8513 1.0245 L3.9198 1.0351 L3.9875 1.0475 L4.0546 1.0617 L4.1210 1.0777 L4.1867 1.0954 L4.2517 1.1149 L4.3159 1.1361 L4.3793 1.1589 L4.4419 1.1834 L4.5037 1.2096 L4.5647 1.2373 L4.6248 1.2666 L4.6840 1.2975 L4.7422 1.3299 L4.7995 1.3638 L4.8558 1.3992 L4.9111 1.4360 L4.9654 1.4743 L5.0186 1.5140 L5.0707 1.5550 L5.1217 1.5974 L5.1716 1.6411 L5.2203 1.6860 L5.2677 1.7323 L5.3140 1.7797 L5.3589 1.8284 L5.4026 1.8783 L5.4450 1.9293 L5.4860 1.9814 L5.5257 2.0346 L5.5640 2.0889 L5.6008 2.1442 L5.6362 2.2005 L5.6701 2.2578 L5.7025 2.3160 L5.7334 2.3752 L5.7627 2.4353 L5.7904 2.4963 L5.8166 2.5581 L5.8411 2.6207 L5.8639 2.6841 L5.8851 2.7483 L5.9046 2.8133 L5.9223 2.8790 L5.9383 2.9454 L5.9525 3.0125 L5.9649 3.0802 L5.9755 3.1487 L5.9842 3.2177 L5.9911 3.2874 L5.9960 3.3577 L5.9990 3.4286 L6.0000 3.5000 L5.9990 3.5714 L5.9960 3.6423 L5.9911 3.7126 L5.9842 3.7823 L5.9755 3.8513 L5.9649 3.9198 L5.9525 3.9875 L5.9383 4.0546 L5.9223 4.1210 L5.9046 4.1867 L5.8851 4.2517 L5.8639 4.3159 L5.8411 4.3793 L5.8166 4.4419 L5.7904 4.5037 L5.7627 4.5647 L5.7334 4.6248 L5.7025 4.6840 L5.6701 4.7422 L5.6362 4.7995 L5.6008 4.8558 L5.5640 4.9111 L5.5257 4.9654 L5.4860 5.0186 L5.4450 5.0707 L5.4026 5.1217 L5.3589 5.1716 L5.3140 5.2203 L5.2677 5.2677 L5.2203 5.3140 L5.1716 5.3589 L5.1217 5.4026 L5.0707 5.4450 L5.0186 5.4860 L4.9654 5.5257 L4.9111 5.5640 L4.8558 5.6008 L4.7995 5.6362 L4.7422 5.6701 L4.6840 5.7025 L4.6248 5.7334 L4.5647 5.7627 L4.5037 5.7904 L4.4419 5.8166 L4.3793 5.8411 L4.3159 5.8639 L4.2517 5.8851 L4.1867 5.9046 L4.1210 5.9223 L4.0546 5.9383 L3.9875 5.9525 L3.9198 5.9649 L3.8513 5.9755 L3.7823 5.9842 L3.7126 5.9911 L3.6423 5.9960 L3.5714 5.9990 L3.5000 6.0000 L3.4286 5.9990 L3.3577 5.9960 Z M10.5949 6.9981 L10.6157 6.9973 L10.6993 6.9921 L10.7200 6.9903 L10.8027 6.9817 L10.8232 6.9792 L10.9048 6.9672 L10.9252 6.9638 L11.0057 6.9486 L11.0258 6.9444 L11.1052 6.9260 L11.1251 6.9210 L11.2032 6.8995 L11.2227 6.8937 L11.2995 6.8692 L11.3187 6.8626 L11.3942 6.8351 L11.4130 6.8278 L11.4870 6.7974 L11.5054 6.7894 L11.5779 6.7561 L11.5959 6.7474 L11.6668 6.7114 L11.6843 6.7020 L11.7536 6.6633 L11.7707 6.6533 L11.8382 6.6119 L11.8548 6.6013 L11.9205 6.5574 L11.9367 6.5461 L12.0005 6.4997 L12.0162 6.4878 L12.0781 6.4390 L12.0932 6.4265 L12.1531 6.3754 L12.1677 6.3624 L12.2256 6.3089 L12.2397 6.2953 L12.2953 6.2397 L12.3089 6.2256 L12.3624 6.1677 L12.3754 6.1531 L12.4266 6.0932 L12.4390 6.0780 L12.4878 6.0161 L12.4997 6.0005 L12.5461 5.9366 L12.5574 5.9205 L12.6013 5.8548 L12.6119 5.8382 L12.6533 5.7707 L12.6633 5.7535 L12.7020 5.6843 L12.7114 5.6668 L12.7474 5.5959 L12.7561 5.5779 L12.7894 5.5054 L12.7974 5.4870 L12.8278 5.4130 L12.8351 5.3942 L12.8626 5.3187 L12.8692 5.2995 L12.8937 5.2227 L12.8995 5.2032 L12.9210 5.1250 L12.9260 5.1052 L12.9444 5.0258 L12.9486 5.0057 L12.9638 4.9252 L12.9672 4.9048 L12.9792 4.8232 L12.9817 4.8027 L12.9903 4.7200 L12.9921 4.6993 L12.9973 4.6157 L12.9981 4.5949 L12.9999 4.5104 L12.9999 4.4896 L12.9981 4.4051 L12.9973 4.3843 L12.9921 4.3007 L12.9903 4.2800 L12.9817 4.1973 L12.9792 4.1768 L12.9672 4.0952 L12.9638 4.0748 L12.9486 3.9943 L12.9444 3.9742 L12.9260 3.8948 L12.9210 3.8750 L12.8995 3.7968 L12.8937 3.7773 L12.8692 3.7005 L12.8626 3.6813 L12.8351 3.6058 L12.8278 3.5870 L12.7974 3.5130 L12.7894 3.4946 L12.7561 3.4221 L12.7474 3.4041 L12.7114 3.3332 L12.7020 3.3157 L12.6633 3.2465 L12.6533 3.2293 L12.6119 3.1618 L12.6013 3.1452 L12.5574 3.0795 L12.5461 3.0634 L12.4997 2.9995 L12.4878 2.9839 L12.4390 2.9220 L12.4266 2.9068 L12.3754 2.8469 L12.3624 2.8323 L12.3089 2.7744 L12.2953 2.7603 L12.2397 2.7047 L12.2256 2.6911 L12.1677 2.6376 L12.1531 2.6246 L12.0932 2.5735 L12.0781 2.5610 L12.0162 2.5122 L12.0005 2.5003 L11.9367 2.4539 L11.9205 2.4426 L11.8548 2.3987 L11.8382 2.3881 L11.7707 2.3467 L11.7536 2.3367 L11.6843 2.2980 L11.6668 2.2886 L11.5959 2.2526 L11.5779 2.2439 L11.5054 2.2106 L11.4870 2.2026 L11.4130 2.1722 L11.3942 2.1649 L11.3187 2.1374 L11.2995 2.1308 L11.2227 2.1063 L11.2032 2.1005 L11.1251 2.0790 L11.1052 2.0740 L11.0258 2.0556 L11.0057 2.0514 L10.9252 2.0362 L10.9048 2.0328 L10.8232 2.0208 L10.8027 2.0183 L10.7200 2.0097 L10.6993 2.0079 L10.6157 2.0027 L10.5949 2.0019 L10.5104 2.0001 L10.4896 2.0001 L10.4051 2.0019 L10.3843 2.0027 L10.3007 2.0079 L10.2800 2.0097 L10.1973 2.0183 L10.1768 2.0208 L10.0952 2.0328 L10.0748 2.0362 L9.9943 2.0514 L9.9742 2.0556 L9.8948 2.0740 L9.8750 2.0790 L9.7968 2.1005 L9.7773 2.1063 L9.7005 2.1308 L9.6813 2.1374 L9.6058 2.1649 L9.5870 2.1722 L9.5130 2.2026 L9.4946 2.2106 L9.4221 2.2439 L9.4041 2.2526 L9.3332 2.2886 L9.3157 2.2980 L9.2465 2.3367 L9.2293 2.3467 L9.1618 2.3881 L9.1452 2.3987 L9.0795 2.4426 L9.0633 2.4539 L8.9995 2.5003 L8.9839 2.5122 L8.9220 2.5610 L8.9068 2.5734 L8.8469 2.6246 L8.8323 2.6376 L8.7744 2.6911 L8.7603 2.7047 L8.7047 2.7603 L8.6911 2.7744 L8.6376 2.8323 L8.6246 2.8469 L8.5734 2.9068 L8.5610 2.9220 L8.5122 2.9839 L8.5003 2.9995 L8.4539 3.0633 L8.4426 3.0795 L8.3987 3.1452 L8.3881 3.1618 L8.3467 3.2293 L8.3367 3.2465 L8.2980 3.3157 L8.2886 3.3332 L8.2526 3.4041 L8.2439 3.4221 L8.2106 3.4946 L8.2026 3.5130 L8.1722 3.5870 L8.1649 3.6058 L8.1374 3.6813 L8.1308 3.7005 L8.1063 3.7773 L8.1005 3.7968 L8.0790 3.8750 L8.0740 3.8948 L8.0556 3.9742 L8.0514 3.9943 L8.0362 4.0748 L8.0328 4.0952 L8.0208 4.1768 L8.0183 4.1973 L8.0097 4.2800 L8.0079 4.3007 L8.0027 4.3843 L8.0019 4.4051 L8.0001 4.4896 L8.0001 4.5104 L8.0019 4.5949 L8.0027 4.6157 L8.0079 4.6993 L8.0097 4.7200 L8.0183 4.8027 L8.0208 4.8232 L8.0328 4.9048 L8.0362 4.9252 L8.0514 5.0057 L8.0556 5.0258 L8.0740 5.1052 L8.0790 5.1250 L8.1005 5.2032 L8.1063 5.2227 L8.1308 5.2995 L8.1374 5.3187 L8.1649 5.3942 L8.1722 5.4130 L8.2026 5.4870 L8.2106 5.5054 L8.2439 5.5779 L8.2526 5.5959 L8.2886 5.6668 L8.2980 5.6843 L8.3367 5.7535 L8.3467 5.7707 L8.3881 5.8382 L8.3987 5.8548 L8.4426 5.9205 L8.4539 5.9367 L8.5003 6.0005 L8.5122 6.0161 L8.5610 6.0780 L8.5734 6.0932 L8.6246 6.1531 L8.6376 6.1677 L8.6911 6.2256 L8.7047 6.2397 L8.7603 6.2953 L8.7744 6.3089 L8.8323 6.3624 L8.8469 6.3754 L8.9068 6.4266 L8.9220 6.4390 L8.9839 6.4878 L8.9995 6.4997 L9.0633 6.5461 L9.0795 6.5574 L9.1452 6.6013 L9.1618 6.6119 L9.2293 6.6533 L9.2465 6.6633 L9.3157 6.7020 L9.3332 6.7114 L9.4041 6.7474 L9.4221 6.7561 L9.4946 6.7894 L9.5130 6.7974 L9.5870 6.8278 L9.6058 6.8351 L9.6813 6.8626 L9.7005 6.8692 L9.7773 6.8937 L9.7968 6.8995 L9.8750 6.9210 L9.8948 6.9260 L9.9742 6.9444 L9.9943 6.9486 L10.0748 6.9638 L10.0952 6.9672 L10.1768 6.9792 L10.1973 6.9817 L10.2800 6.9903 L10.3007 6.9921 L10.3843 6.9973 L10.4051 6.9981 L10.4896 6.9999 L10.5000 6.9991 L10.5104 6.9999 L10.5949 6.9981 Z M10.3733 5.9946 L10.3112 5.9882 L10.2500 5.9792 L10.1897 5.9679 L10.1303 5.9541 L10.0718 5.9380 L10.0144 5.9197 L9.9579 5.8991 L9.9026 5.8763 L9.8483 5.8514 L9.7952 5.8244 L9.7433 5.7954 L9.6927 5.7644 L9.6434 5.7315 L9.5955 5.6966 L9.5490 5.6599 L9.5040 5.6215 L9.4605 5.5813 L9.4187 5.5395 L9.3785 5.4960 L9.3401 5.4510 L9.3034 5.4045 L9.2685 5.3566 L9.2356 5.3073 L9.2046 5.2567 L9.1756 5.2048 L9.1486 5.1517 L9.1237 5.0974 L9.1009 5.0421 L9.0803 4.9856 L9.0620 4.9282 L9.0459 4.8697 L9.0321 4.8103 L9.0208 4.7500 L9.0118 4.6888 L9.0054 4.6267 L9.0014 4.5638 L9.0001 4.5000 L9.0014 4.4362 L9.0054 4.3733 L9.0118 4.3112 L9.0208 4.2500 L9.0321 4.1897 L9.0459 4.1303 L9.0620 4.0718 L9.0803 4.0144 L9.1009 3.9579 L9.1237 3.9026 L9.1486 3.8483 L9.1756 3.7952 L9.2046 3.7433 L9.2356 3.6927 L9.2685 3.6434 L9.3034 3.5955 L9.3401 3.5490 L9.3785 3.5040 L9.4187 3.4605 L9.4605 3.4187 L9.5040 3.3785 L9.5490 3.3401 L9.5955 3.3034 L9.6434 3.2685 L9.6927 3.2356 L9.7433 3.2046 L9.7952 3.1756 L9.8483 3.1486 L9.9026 3.1237 L9.9579 3.1009 L10.0144 3.0803 L10.0718 3.0620 L10.1303 3.0459 L10.1897 3.0321 L10.2500 3.0208 L10.3112 3.0118 L10.3733 3.0054 L10.4362 3.0014 L10.5000 3.0001 L10.5638 3.0014 L10.6267 3.0054 L10.6888 3.0118 L10.7500 3.0208 L10.8103 3.0321 L10.8697 3.0459 L10.9282 3.0620 L10.9856 3.0803 L11.0421 3.1009 L11.0974 3.1237 L11.1517 3.1486 L11.2048 3.1756 L11.2567 3.2046 L11.3073 3.2356 L11.3566 3.2685 L11.4045 3.3034 L11.4510 3.3401 L11.4960 3.3785 L11.5395 3.4187 L11.5813 3.4605 L11.6215 3.5040 L11.6599 3.5490 L11.6966 3.5955 L11.7315 3.6434 L11.7644 3.6927 L11.7954 3.7433 L11.8245 3.7952 L11.8514 3.8483 L11.8763 3.9026 L11.8991 3.9579 L11.9197 4.0144 L11.9380 4.0718 L11.9541 4.1303 L11.9679 4.1897 L11.9792 4.2500 L11.9882 4.3112 L11.9946 4.3733 L11.9986 4.4362 L11.9999 4.5000 L11.9986 4.5638 L11.9946 4.6267 L11.9882 4.6888 L11.9792 4.7500 L11.9679 4.8103 L11.9541 4.8697 L11.9380 4.9282 L11.9197 4.9856 L11.8991 5.0421 L11.8763 5.0974 L11.8514 5.1517 L11.8245 5.2048 L11.7954 5.2567 L11.7644 5.3073 L11.7315 5.3566 L11.6966 5.4045 L11.6599 5.4510 L11.6215 5.4960 L11.5813 5.5395 L11.5395 5.5813 L11.4960 5.6215 L11.4510 5.6599 L11.4045 5.6966 L11.3566 5.7315 L11.3073 5.7644 L11.2567 5.7954 L11.2048 5.8244 L11.1517 5.8514 L11.0974 5.8763 L11.0421 5.8991 L10.9856 5.9197 L10.9282 5.9380 L10.8697 5.9541 L10.8103 5.9679 L10.7500 5.9792 L10.6888 5.9882 L10.6267 5.9946 L10.5638 5.9986 L10.5000 5.9999 L10.4362 5.9986 L10.3733 5.9946 Z M13.0381 12.6913 L13.0843 12.7778 L13.1464 12.8536 L13.2222 12.9157 L13.3087 12.9619 L13.4025 12.9904 L13.5000 13.0000 L13.5975 12.9904 L13.6913 12.9619 L13.7778 12.9157 L13.8536 12.8536 L13.9157 12.7778 L13.9619 12.6913 L13.9904 12.5975 L14.0000 12.5000 L14.0000 10.0000 L13.9904 9.9025 L13.9619 9.8087 L13.9157 9.7222 L13.8536 9.6464 L13.7778 9.5843 L13.6913 9.5381 L13.5975 9.5096 L13.5000 9.5000 L13.4025 9.5096 L13.3087 9.5381 L13.2222 9.5843 L13.1464 9.6464 L13.0843 9.7222 L13.0381 9.8087 L13.0096 9.9025 L13.0000 10.0000 L13.0000 12.5000 L13.0096 12.5975 L13.0381 12.6913 Z M4.3978 8.5037 L4.3575 8.5070 L4.2773 8.5168 L4.2376 8.5232 L4.1595 8.5392 L4.1207 8.5488 L4.0450 8.5707 L4.0074 8.5832 L3.9343 8.6108 L3.8981 8.6260 L3.8278 8.6591 L3.7933 8.6770 L3.7261 8.7152 L3.6934 8.7355 L3.6295 8.7786 L3.5986 8.8013 L3.5384 8.8491 L3.5094 8.8739 L3.4531 8.9261 L3.4261 8.9531 L3.3739 9.0094 L3.3491 9.0384 L3.3013 9.0986 L3.2786 9.1295 L3.2355 9.1934 L3.2152 9.2261 L3.1770 9.2933 L3.1591 9.3278 L3.1260 9.3981 L3.1108 9.4343 L3.0832 9.5074 L3.0707 9.5450 L3.0488 9.6207 L3.0392 9.6595 L3.0232 9.7376 L3.0168 9.7773 L3.0070 9.8575 L3.0037 9.8978 L3.0004 9.9798 L3.0000 10.0000 L3.0000 10.0781 L3.0000 12.5000 L3.0004 12.5202 L3.0037 12.6022 L3.0070 12.6425 L3.0168 12.7227 L3.0232 12.7624 L3.0392 12.8405 L3.0488 12.8793 L3.0707 12.9550 L3.0832 12.9926 L3.1108 13.0657 L3.1260 13.1019 L3.1591 13.1722 L3.1770 13.2067 L3.2152 13.2739 L3.2355 13.3067 L3.2786 13.3705 L3.3013 13.4014 L3.3491 13.4616 L3.3739 13.4906 L3.4261 13.5469 L3.4531 13.5739 L3.5094 13.6261 L3.5384 13.6509 L3.5986 13.6987 L3.6295 13.7214 L3.6934 13.7645 L3.7261 13.7848 L3.7933 13.8231 L3.8278 13.8409 L3.8982 13.8740 L3.9343 13.8892 L4.0074 13.9168 L4.0450 13.9293 L4.1207 13.9512 L4.1595 13.9608 L4.2376 13.9768 L4.2773 13.9832 L4.3575 13.9930 L4.3978 13.9963 L4.4798 13.9996 L4.5000 14.0000 L4.5917 14.0000 L10.0000 14.0000 L10.0202 13.9996 L10.1022 13.9963 L10.1425 13.9930 L10.2227 13.9832 L10.2624 13.9768 L10.3405 13.9608 L10.3793 13.9512 L10.4550 13.9293 L10.4926 13.9168 L10.5657 13.8892 L10.6019 13.8740 L10.6722 13.8409 L10.7067 13.8231 L10.7739 13.7848 L10.8066 13.7645 L10.8705 13.7214 L10.9014 13.6987 L10.9616 13.6509 L10.9906 13.6261 L11.0469 13.5739 L11.0739 13.5469 L11.1261 13.4906 L11.1509 13.4616 L11.1987 13.4014 L11.2214 13.3705 L11.2645 13.3066 L11.2848 13.2739 L11.3231 13.2067 L11.3409 13.1722 L11.3740 13.1019 L11.3892 13.0657 L11.4168 12.9926 L11.4293 12.9550 L11.4512 12.8793 L11.4608 12.8405 L11.4768 12.7624 L11.4832 12.7227 L11.4930 12.6425 L11.4963 12.6022 L11.4996 12.5202 L11.5000 12.5000 L11.5000 12.4219 L11.5000 10.0000 L11.4996 9.9798 L11.4963 9.8978 L11.4930 9.8575 L11.4832 9.7773 L11.4768 9.7376 L11.4608 9.6595 L11.4512 9.6207 L11.4293 9.5450 L11.4168 9.5074 L11.3892 9.4343 L11.3740 9.3982 L11.3409 9.3278 L11.3231 9.2933 L11.2848 9.2261 L11.2645 9.1934 L11.2214 9.1295 L11.1987 9.0986 L11.1509 9.0384 L11.1261 9.0094 L11.0739 8.9531 L11.0469 8.9261 L10.9906 8.8739 L10.9616 8.8491 L10.9014 8.8013 L10.8705 8.7786 L10.8067 8.7355 L10.7739 8.7152 L10.7067 8.6770 L10.6722 8.6591 L10.6019 8.6260 L10.5657 8.6108 L10.4926 8.5832 L10.4550 8.5707 L10.3793 8.5488 L10.3405 8.5392 L10.2624 8.5232 L10.2227 8.5168 L10.1425 8.5070 L10.1022 8.5037 L10.0202 8.5004 L10.0101 8.5010 L10.0000 8.5000 L4.5000 8.5000 L4.4798 8.5004 L4.3978 8.5037 Z M10.0817 9.5070 L10.1206 9.5149 L10.1581 9.5258 L10.1944 9.5395 L10.2294 9.5559 L10.2629 9.5749 L10.2948 9.5965 L10.3250 9.6205 L10.3533 9.6467 L10.3795 9.6750 L10.4035 9.7052 L10.4251 9.7371 L10.4441 9.7707 L10.4605 9.8056 L10.4742 9.8419 L10.4851 9.8794 L10.4930 9.9183 L10.4979 9.9584 L10.5000 10.0101 L10.5000 12.4219 L10.5000 12.4899 L10.4979 12.5416 L10.4930 12.5817 L10.4851 12.6206 L10.4742 12.6581 L10.4605 12.6944 L10.4441 12.7294 L10.4251 12.7629 L10.4035 12.7948 L10.3795 12.8250 L10.3533 12.8533 L10.3250 12.8795 L10.2948 12.9035 L10.2629 12.9251 L10.2294 12.9441 L10.1944 12.9605 L10.1581 12.9742 L10.1206 12.9851 L10.0817 12.9930 L10.0416 12.9979 L9.9899 13.0000 L4.5917 13.0000 L4.5101 13.0000 L4.4584 12.9979 L4.4183 12.9930 L4.3794 12.9851 L4.3419 12.9742 L4.3056 12.9605 L4.2707 12.9441 L4.2371 12.9251 L4.2052 12.9035 L4.1750 12.8795 L4.1467 12.8533 L4.1205 12.8250 L4.0965 12.7948 L4.0749 12.7629 L4.0559 12.7294 L4.0395 12.6944 L4.0258 12.6581 L4.0149 12.6206 L4.0070 12.5817 L4.0021 12.5416 L4.0000 12.4899 L4.0000 10.0781 L4.0000 10.0101 L4.0021 9.9584 L4.0070 9.9183 L4.0149 9.8794 L4.0258 9.8419 L4.0395 9.8056 L4.0559 9.7707 L4.0749 9.7371 L4.0965 9.7052 L4.1205 9.6750 L4.1467 9.6467 L4.1750 9.6205 L4.2052 9.5965 L4.2371 9.5749 L4.2707 9.5559 L4.3056 9.5395 L4.3419 9.5258 L4.3794 9.5149 L4.4183 9.5070 L4.4584 9.5021 L4.5101 9.5000 L9.9899 9.5000 L10.0416 9.5021 L10.0817 9.5070 Z"></path></svg>