<svg xmlns="http://www.w3.org/2000/svg" fill="none" viewBox="0 0 14 14"><path fill="currentColor" fill-rule="evenodd" clip-rule="evenodd" d="M12.6022 4.9963 L12.6425 4.9930 L12.7227 4.9832 L12.7624 4.9768 L12.8405 4.9608 L12.8793 4.9512 L12.9550 4.9293 L12.9926 4.9168 L13.0657 4.8892 L13.1019 4.8740 L13.1722 4.8409 L13.2067 4.8230 L13.2739 4.7848 L13.3067 4.7645 L13.3705 4.7214 L13.4014 4.6987 L13.4616 4.6509 L13.4906 4.6261 L13.5469 4.5739 L13.5739 4.5469 L13.6261 4.4906 L13.6509 4.4616 L13.6987 4.4014 L13.7214 4.3705 L13.7645 4.3066 L13.7848 4.2739 L13.8231 4.2067 L13.8409 4.1722 L13.8740 4.1018 L13.8892 4.0657 L13.9168 3.9926 L13.9293 3.9550 L13.9512 3.8793 L13.9608 3.8405 L13.9768 3.7624 L13.9832 3.7227 L13.9930 3.6425 L13.9963 3.6022 L13.9996 3.5202 L14.0000 3.5000 L14.0000 1.5769 L14.0000 1.5000 L13.9996 1.4798 L13.9963 1.3978 L13.9930 1.3575 L13.9832 1.2773 L13.9768 1.2376 L13.9608 1.1595 L13.9512 1.1207 L13.9293 1.0450 L13.9168 1.0074 L13.8892 0.9343 L13.8740 0.8981 L13.8409 0.8278 L13.8231 0.7933 L13.7848 0.7261 L13.7645 0.6934 L13.7214 0.6295 L13.6987 0.5986 L13.6509 0.5384 L13.6261 0.5094 L13.5739 0.4531 L13.5469 0.4261 L13.4906 0.3739 L13.4616 0.3491 L13.4014 0.3013 L13.3705 0.2786 L13.3067 0.2355 L13.2739 0.2152 L13.2067 0.1770 L13.1722 0.1591 L13.1019 0.1260 L13.0657 0.1108 L12.9926 0.0832 L12.9550 0.0707 L12.8793 0.0488 L12.8405 0.0392 L12.7624 0.0232 L12.7227 0.0168 L12.6425 0.0070 L12.6022 0.0037 L12.5202 0.0004 L12.5000 0.0000 L10.5000 0.0000 L10.4798 0.0004 L10.3978 0.0037 L10.3575 0.0070 L10.2773 0.0168 L10.2376 0.0232 L10.1595 0.0392 L10.1207 0.0488 L10.0450 0.0707 L10.0074 0.0832 L9.9343 0.1108 L9.8981 0.1260 L9.8278 0.1591 L9.7933 0.1770 L9.7261 0.2152 L9.6934 0.2355 L9.6295 0.2786 L9.5986 0.3013 L9.5384 0.3491 L9.5094 0.3739 L9.4531 0.4261 L9.4261 0.4531 L9.3739 0.5094 L9.3491 0.5384 L9.3013 0.5986 L9.2786 0.6295 L9.2355 0.6934 L9.2152 0.7261 L9.1770 0.7933 L9.1591 0.8278 L9.1260 0.8981 L9.1108 0.9343 L9.0832 1.0074 L9.0707 1.0450 L9.0488 1.1207 L9.0392 1.1595 L9.0232 1.2376 L9.0168 1.2773 L9.0070 1.3575 L9.0037 1.3978 L9.0004 1.4798 L9.0000 1.5000 L9.0000 3.5000 L9.0004 3.5202 L9.0037 3.6022 L9.0070 3.6425 L9.0168 3.7227 L9.0232 3.7624 L9.0392 3.8405 L9.0488 3.8793 L9.0707 3.9550 L9.0832 3.9926 L9.1108 4.0657 L9.1260 4.1019 L9.1591 4.1722 L9.1770 4.2067 L9.2152 4.2739 L9.2355 4.3066 L9.2786 4.3705 L9.3013 4.4014 L9.3491 4.4616 L9.3739 4.4906 L9.4261 4.5469 L9.4531 4.5739 L9.5094 4.6261 L9.5384 4.6509 L9.5986 4.6987 L9.6295 4.7214 L9.6934 4.7645 L9.7261 4.7848 L9.7933 4.8230 L9.8278 4.8409 L9.8981 4.8740 L9.9343 4.8892 L10.0074 4.9168 L10.0450 4.9293 L10.1207 4.9512 L10.1595 4.9608 L10.2376 4.9768 L10.2773 4.9832 L10.3575 4.9930 L10.3978 4.9963 L10.4337 4.9977 L10.4221 5.0356 L10.3989 5.1114 L10.3758 5.1872 L10.3526 5.2629 L10.3295 5.3387 L10.3063 5.4144 L10.2831 5.4902 L10.2600 5.5659 L10.2368 5.6417 L10.2137 5.7175 L10.1905 5.7932 L10.1673 5.8690 L10.1442 5.9447 L10.1210 6.0205 L10.0979 6.0962 L10.0747 6.1720 L10.0515 6.2478 L10.0284 6.3235 L10.0052 6.3993 L9.9820 6.4750 L9.9744 6.5000 L8.5000 6.5000 L8.4798 6.5004 L8.3978 6.5037 L8.3575 6.5070 L8.2773 6.5168 L8.2376 6.5232 L8.1595 6.5392 L8.1207 6.5488 L8.0450 6.5707 L8.0074 6.5832 L7.9343 6.6108 L7.8981 6.6260 L7.8278 6.6591 L7.7933 6.6770 L7.7261 6.7152 L7.6934 6.7355 L7.6295 6.7786 L7.5986 6.8013 L7.5473 6.8420 L7.5264 6.8212 L7.4721 6.7672 L7.4177 6.7132 L7.3634 6.6591 L7.3090 6.6051 L7.2547 6.5511 L7.2003 6.4971 L7.1460 6.4430 L7.0916 6.3890 L7.0373 6.3350 L6.9829 6.2809 L6.9286 6.2269 L6.8743 6.1729 L6.8199 6.1188 L6.7656 6.0648 L6.7495 6.0489 L6.7496 6.0473 L6.7500 6.0271 L6.7500 4.0271 L6.7496 4.0069 L6.7463 3.9249 L6.7430 3.8846 L6.7332 3.8044 L6.7268 3.7647 L6.7108 3.6866 L6.7012 3.6478 L6.6793 3.5721 L6.6668 3.5345 L6.6392 3.4614 L6.6240 3.4252 L6.5909 3.3549 L6.5730 3.3204 L6.5348 3.2532 L6.5145 3.2205 L6.4714 3.1566 L6.4487 3.1257 L6.4009 3.0655 L6.3761 3.0365 L6.3239 2.9802 L6.2969 2.9532 L6.2406 2.9010 L6.2116 2.8762 L6.1514 2.8284 L6.1205 2.8057 L6.0566 2.7626 L6.0239 2.7423 L5.9567 2.7041 L5.9222 2.6862 L5.8519 2.6531 L5.8157 2.6379 L5.7426 2.6103 L5.7050 2.5978 L5.6293 2.5759 L5.5905 2.5663 L5.5124 2.5503 L5.4727 2.5439 L5.3925 2.5341 L5.3522 2.5308 L5.2702 2.5275 L5.2500 2.5271 L3.3269 2.5271 L3.2500 2.5271 L3.2298 2.5275 L3.1478 2.5308 L3.1075 2.5341 L3.0273 2.5439 L2.9876 2.5503 L2.9095 2.5663 L2.8707 2.5759 L2.7950 2.5978 L2.7574 2.6103 L2.6843 2.6379 L2.6481 2.6531 L2.5778 2.6862 L2.5433 2.7041 L2.4761 2.7423 L2.4434 2.7626 L2.3795 2.8057 L2.3486 2.8284 L2.2884 2.8762 L2.2594 2.9010 L2.2031 2.9532 L2.1761 2.9802 L2.1239 3.0365 L2.0991 3.0655 L2.0513 3.1257 L2.0286 3.1566 L1.9855 3.2205 L1.9652 3.2532 L1.9270 3.3204 L1.9091 3.3549 L1.8760 3.4252 L1.8608 3.4614 L1.8332 3.5345 L1.8207 3.5721 L1.7988 3.6478 L1.7892 3.6866 L1.7732 3.7647 L1.7668 3.8044 L1.7570 3.8846 L1.7537 3.9249 L1.7504 4.0069 L1.7500 4.0271 L1.7500 5.9502 L1.7500 6.0271 L1.7504 6.0473 L1.7537 6.1293 L1.7570 6.1696 L1.7668 6.2498 L1.7732 6.2895 L1.7892 6.3676 L1.7988 6.4064 L1.8207 6.4821 L1.8332 6.5197 L1.8608 6.5928 L1.8760 6.6290 L1.9091 6.6993 L1.9270 6.7338 L1.9652 6.8010 L1.9855 6.8337 L2.0286 6.8976 L2.0513 6.9285 L2.0991 6.9887 L2.1239 7.0177 L2.1761 7.0740 L2.2031 7.1010 L2.2594 7.1532 L2.2884 7.1780 L2.3486 7.2258 L2.3795 7.2485 L2.4434 7.2916 L2.4761 7.3119 L2.5433 7.3501 L2.5778 7.3680 L2.6481 7.4011 L2.6843 7.4163 L2.7574 7.4439 L2.7950 7.4564 L2.8707 7.4783 L2.8949 7.4843 L2.8859 7.5189 L2.8455 7.6734 L2.8253 7.7507 L2.8051 7.8280 L2.7849 7.9053 L2.7445 8.0598 L2.7243 8.1371 L2.6839 8.2916 L2.6637 8.3689 L2.6435 8.4462 L2.6233 8.5235 L2.6031 8.6008 L2.5626 8.7553 L2.5424 8.8326 L2.5020 8.9871 L2.4987 9.0000 L1.5000 9.0000 L1.4798 9.0004 L1.3978 9.0037 L1.3575 9.0070 L1.2773 9.0168 L1.2376 9.0232 L1.1595 9.0392 L1.1207 9.0488 L1.0450 9.0707 L1.0074 9.0832 L0.9343 9.1108 L0.8981 9.1260 L0.8278 9.1591 L0.7933 9.1770 L0.7261 9.2152 L0.6934 9.2355 L0.6295 9.2786 L0.5986 9.3013 L0.5384 9.3491 L0.5094 9.3739 L0.4531 9.4261 L0.4261 9.4531 L0.3739 9.5094 L0.3491 9.5384 L0.3013 9.5986 L0.2786 9.6295 L0.2355 9.6934 L0.2152 9.7261 L0.1770 9.7933 L0.1591 9.8278 L0.1260 9.8981 L0.1108 9.9343 L0.0832 10.0074 L0.0707 10.0450 L0.0488 10.1207 L0.0392 10.1595 L0.0232 10.2376 L0.0168 10.2773 L0.0070 10.3575 L0.0037 10.3978 L0.0004 10.4798 L0.0000 10.5000 L0.0000 12.5000 L0.0004 12.5202 L0.0037 12.6022 L0.0070 12.6425 L0.0168 12.7227 L0.0232 12.7624 L0.0392 12.8405 L0.0488 12.8793 L0.0707 12.9550 L0.0832 12.9926 L0.1108 13.0657 L0.1260 13.1019 L0.1591 13.1722 L0.1770 13.2067 L0.2152 13.2739 L0.2355 13.3067 L0.2786 13.3705 L0.3013 13.4014 L0.3491 13.4616 L0.3739 13.4906 L0.4261 13.5469 L0.4531 13.5739 L0.5094 13.6261 L0.5384 13.6509 L0.5986 13.6987 L0.6295 13.7214 L0.6934 13.7645 L0.7261 13.7848 L0.7933 13.8231 L0.8278 13.8409 L0.8981 13.8740 L0.9343 13.8892 L1.0074 13.9168 L1.0450 13.9293 L1.1207 13.9512 L1.1595 13.9608 L1.2376 13.9768 L1.2773 13.9832 L1.3575 13.9930 L1.3978 13.9963 L1.4798 13.9996 L1.5000 14.0000 L3.5000 14.0000 L3.5101 13.9990 L3.5202 13.9996 L3.6022 13.9963 L3.6425 13.9930 L3.7227 13.9832 L3.7624 13.9768 L3.8405 13.9608 L3.8793 13.9512 L3.9550 13.9293 L3.9926 13.9168 L4.0657 13.8892 L4.1018 13.8740 L4.1722 13.8409 L4.2067 13.8231 L4.2739 13.7848 L4.3066 13.7645 L4.3705 13.7214 L4.4014 13.6987 L4.4616 13.6509 L4.4906 13.6261 L4.5469 13.5739 L4.5739 13.5469 L4.6261 13.4906 L4.6509 13.4616 L4.6987 13.4014 L4.7214 13.3705 L4.7645 13.3067 L4.7848 13.2739 L4.8230 13.2067 L4.8409 13.1722 L4.8740 13.1019 L4.8892 13.0657 L4.9168 12.9926 L4.9293 12.9550 L4.9512 12.8793 L4.9608 12.8405 L4.9768 12.7624 L4.9832 12.7227 L4.9930 12.6425 L4.9963 12.6022 L4.9996 12.5202 L5.0000 12.5000 L5.0000 10.5000 L4.9996 10.4798 L4.9963 10.3978 L4.9930 10.3575 L4.9832 10.2773 L4.9768 10.2376 L4.9608 10.1595 L4.9512 10.1207 L4.9293 10.0450 L4.9168 10.0074 L4.8892 9.9343 L4.8740 9.8981 L4.8409 9.8278 L4.8230 9.7933 L4.7848 9.7261 L4.7645 9.6934 L4.7214 9.6295 L4.6987 9.5986 L4.6509 9.5384 L4.6261 9.5094 L4.5739 9.4531 L4.5469 9.4261 L4.4906 9.3739 L4.4616 9.3491 L4.4014 9.3013 L4.3705 9.2786 L4.3066 9.2355 L4.2739 9.2152 L4.2067 9.1770 L4.1722 9.1591 L4.1019 9.1260 L4.0657 9.1108 L3.9926 9.0832 L3.9550 9.0707 L3.8793 9.0488 L3.8405 9.0392 L3.7624 9.0232 L3.7227 9.0168 L3.6425 9.0070 L3.6022 9.0037 L3.5321 9.0009 L3.5705 8.8537 L3.5907 8.7764 L3.6109 8.6991 L3.6311 8.6218 L3.6513 8.5446 L3.6918 8.3900 L3.7120 8.3127 L3.7524 8.1582 L3.7726 8.0809 L3.7928 8.0036 L3.8130 7.9263 L3.8534 7.7718 L3.8736 7.6945 L3.8938 7.6172 L3.9140 7.5400 L3.9173 7.5271 L5.2500 7.5271 L5.2601 7.5261 L5.2702 7.5267 L5.3522 7.5234 L5.3925 7.5201 L5.4727 7.5103 L5.5124 7.5039 L5.5905 7.4879 L5.6293 7.4783 L5.7050 7.4564 L5.7426 7.4439 L5.8157 7.4163 L5.8519 7.4011 L5.9222 7.3680 L5.9567 7.3501 L6.0239 7.3119 L6.0566 7.2916 L6.1205 7.2485 L6.1514 7.2258 L6.2116 7.1780 L6.2406 7.1532 L6.2969 7.1010 L6.3239 7.0740 L6.3423 7.0541 L6.3866 7.0982 L6.4410 7.1522 L6.4953 7.2062 L6.5497 7.2603 L6.6040 7.3143 L6.6584 7.3683 L6.7127 7.4224 L6.7671 7.4764 L6.8214 7.5304 L6.8757 7.5844 L6.9301 7.6385 L6.9844 7.6925 L7.0243 7.7322 L7.0232 7.7376 L7.0168 7.7773 L7.0070 7.8575 L7.0037 7.8978 L7.0004 7.9798 L7.0000 8.0000 L7.0000 10.0000 L7.0004 10.0202 L7.0037 10.1022 L7.0070 10.1425 L7.0168 10.2227 L7.0232 10.2624 L7.0392 10.3405 L7.0488 10.3793 L7.0707 10.4550 L7.0832 10.4926 L7.1108 10.5657 L7.1260 10.6019 L7.1591 10.6722 L7.1770 10.7067 L7.2152 10.7739 L7.2355 10.8067 L7.2786 10.8705 L7.3013 10.9014 L7.3491 10.9616 L7.3739 10.9906 L7.4261 11.0469 L7.4531 11.0739 L7.5094 11.1261 L7.5384 11.1509 L7.5986 11.1987 L7.6295 11.2214 L7.6934 11.2645 L7.7261 11.2848 L7.7933 11.3231 L7.8278 11.3409 L7.8982 11.3740 L7.9343 11.3892 L8.0074 11.4168 L8.0450 11.4293 L8.1207 11.4512 L8.1595 11.4608 L8.2376 11.4768 L8.2773 11.4832 L8.3575 11.4930 L8.3978 11.4963 L8.4798 11.4996 L8.5000 11.5000 L10.5000 11.5000 L10.5101 11.4990 L10.5202 11.4996 L10.6022 11.4963 L10.6425 11.4930 L10.7227 11.4832 L10.7624 11.4768 L10.8405 11.4608 L10.8793 11.4512 L10.9550 11.4293 L10.9926 11.4168 L11.0657 11.3892 L11.1019 11.3740 L11.1722 11.3409 L11.2067 11.3231 L11.2739 11.2848 L11.3066 11.2645 L11.3705 11.2214 L11.4014 11.1987 L11.4616 11.1509 L11.4906 11.1261 L11.5469 11.0739 L11.5739 11.0469 L11.6261 10.9906 L11.6509 10.9616 L11.6987 10.9014 L11.7214 10.8705 L11.7645 10.8066 L11.7848 10.7739 L11.8231 10.7067 L11.8409 10.6722 L11.8740 10.6019 L11.8892 10.5657 L11.9168 10.4926 L11.9293 10.4550 L11.9512 10.3793 L11.9608 10.3405 L11.9768 10.2624 L11.9832 10.2227 L11.9930 10.1425 L11.9963 10.1022 L11.9996 10.0202 L12.0000 10.0000 L12.0000 8.0769 L12.0000 8.0000 L11.9996 7.9798 L11.9963 7.8978 L11.9930 7.8575 L11.9832 7.7773 L11.9768 7.7376 L11.9608 7.6595 L11.9512 7.6207 L11.9293 7.5450 L11.9168 7.5074 L11.8892 7.4343 L11.8740 7.3981 L11.8409 7.3278 L11.8231 7.2933 L11.7848 7.2261 L11.7645 7.1934 L11.7214 7.1295 L11.6987 7.0986 L11.6509 7.0384 L11.6261 7.0094 L11.5739 6.9531 L11.5469 6.9261 L11.4906 6.8739 L11.4616 6.8491 L11.4014 6.8013 L11.3705 6.7786 L11.3067 6.7355 L11.2739 6.7152 L11.2067 6.6770 L11.1722 6.6591 L11.1019 6.6260 L11.0657 6.6108 L10.9945 6.5839 L11.0078 6.5401 L11.0310 6.4644 L11.0542 6.3886 L11.0773 6.3128 L11.1005 6.2371 L11.1236 6.1613 L11.1468 6.0856 L11.1700 6.0098 L11.1931 5.9341 L11.2163 5.8583 L11.2394 5.7825 L11.2626 5.7068 L11.2858 5.6310 L11.3089 5.5553 L11.3321 5.4795 L11.3552 5.4038 L11.3784 5.3280 L11.4016 5.2522 L11.4247 5.1765 L11.4479 5.1007 L11.4711 5.0250 L11.4787 5.0000 L12.5000 5.0000 L12.5101 4.9990 L12.5202 4.9996 L12.6022 4.9963 Z M10.4183 3.9930 L10.3794 3.9851 L10.3419 3.9742 L10.3056 3.9605 L10.2707 3.9441 L10.2371 3.9251 L10.2052 3.9035 L10.1750 3.8795 L10.1467 3.8533 L10.1205 3.8250 L10.0965 3.7948 L10.0749 3.7629 L10.0559 3.7293 L10.0395 3.6944 L10.0258 3.6581 L10.0149 3.6206 L10.0070 3.5817 L10.0021 3.5416 L10.0000 3.4899 L10.0000 1.5101 L10.0021 1.4584 L10.0070 1.4183 L10.0149 1.3794 L10.0258 1.3419 L10.0395 1.3056 L10.0559 1.2707 L10.0749 1.2371 L10.0965 1.2052 L10.1205 1.1750 L10.1467 1.1467 L10.1750 1.1205 L10.2052 1.0965 L10.2371 1.0749 L10.2707 1.0559 L10.3056 1.0395 L10.3419 1.0258 L10.3794 1.0149 L10.4183 1.0070 L10.4584 1.0021 L10.5101 1.0000 L12.4899 1.0000 L12.5416 1.0021 L12.5817 1.0070 L12.6206 1.0149 L12.6581 1.0258 L12.6944 1.0395 L12.7294 1.0559 L12.7629 1.0749 L12.7948 1.0965 L12.8250 1.1205 L12.8533 1.1467 L12.8795 1.1750 L12.9035 1.2052 L12.9251 1.2371 L12.9441 1.2706 L12.9605 1.3056 L12.9742 1.3419 L12.9851 1.3794 L12.9930 1.4183 L12.9979 1.4584 L13.0000 1.5101 L13.0000 1.5769 L13.0000 3.4899 L12.9979 3.5416 L12.9930 3.5817 L12.9851 3.6206 L12.9742 3.6581 L12.9605 3.6944 L12.9441 3.7293 L12.9251 3.7629 L12.9035 3.7948 L12.8795 3.8250 L12.8533 3.8533 L12.8250 3.8795 L12.7948 3.9035 L12.7629 3.9251 L12.7294 3.9441 L12.6944 3.9605 L12.6581 3.9742 L12.6206 3.9851 L12.5817 3.9930 L12.5416 3.9979 L12.4899 4.0000 L10.5101 4.0000 L10.4584 3.9979 L10.4183 3.9930 Z M3.1294 6.5122 L3.0919 6.5013 L3.0556 6.4876 L3.0207 6.4712 L2.9871 6.4522 L2.9552 6.4306 L2.9250 6.4066 L2.8967 6.3804 L2.8705 6.3521 L2.8465 6.3219 L2.8249 6.2900 L2.8059 6.2564 L2.7895 6.2215 L2.7758 6.1852 L2.7649 6.1477 L2.7570 6.1088 L2.7521 6.0687 L2.7500 6.0170 L2.7500 5.9502 L2.7500 4.0372 L2.7521 3.9855 L2.7570 3.9454 L2.7649 3.9065 L2.7758 3.8690 L2.7895 3.8327 L2.8059 3.7978 L2.8249 3.7642 L2.8465 3.7323 L2.8705 3.7021 L2.8967 3.6738 L2.9250 3.6476 L2.9552 3.6236 L2.9871 3.6020 L3.0207 3.5830 L3.0556 3.5666 L3.0919 3.5529 L3.1294 3.5420 L3.1683 3.5341 L3.2084 3.5292 L3.2601 3.5271 L3.3269 3.5271 L5.2399 3.5271 L5.2916 3.5292 L5.3317 3.5341 L5.3706 3.5420 L5.4081 3.5529 L5.4444 3.5666 L5.4793 3.5830 L5.5129 3.6020 L5.5448 3.6236 L5.5750 3.6476 L5.6033 3.6738 L5.6295 3.7021 L5.6535 3.7323 L5.6751 3.7642 L5.6941 3.7978 L5.7105 3.8327 L5.7242 3.8690 L5.7351 3.9065 L5.7430 3.9454 L5.7479 3.9855 L5.7500 4.0372 L5.7500 6.0170 L5.7479 6.0687 L5.7430 6.1088 L5.7351 6.1477 L5.7242 6.1852 L5.7105 6.2215 L5.6941 6.2564 L5.6751 6.2900 L5.6535 6.3219 L5.6295 6.3521 L5.6033 6.3804 L5.5750 6.4066 L5.5448 6.4306 L5.5129 6.4522 L5.4793 6.4712 L5.4444 6.4876 L5.4081 6.5013 L5.3706 6.5122 L5.3317 6.5201 L5.2916 6.5250 L5.2399 6.5271 L3.2601 6.5271 L3.2084 6.5250 L3.1683 6.5201 L3.1294 6.5122 Z M8.3794 10.4851 L8.3419 10.4742 L8.3056 10.4605 L8.2707 10.4441 L8.2371 10.4251 L8.2052 10.4035 L8.1750 10.3795 L8.1467 10.3533 L8.1205 10.3250 L8.0965 10.2948 L8.0749 10.2629 L8.0559 10.2294 L8.0395 10.1944 L8.0258 10.1581 L8.0149 10.1206 L8.0070 10.0817 L8.0021 10.0416 L8.0000 9.9899 L8.0000 8.0101 L8.0021 7.9584 L8.0070 7.9183 L8.0149 7.8794 L8.0258 7.8419 L8.0395 7.8056 L8.0559 7.7707 L8.0749 7.7371 L8.0965 7.7052 L8.1205 7.6750 L8.1467 7.6467 L8.1750 7.6205 L8.2052 7.5965 L8.2371 7.5749 L8.2707 7.5559 L8.3056 7.5395 L8.3419 7.5258 L8.3794 7.5149 L8.4183 7.5070 L8.4584 7.5021 L8.5101 7.5000 L10.4899 7.5000 L10.5416 7.5021 L10.5817 7.5070 L10.6206 7.5149 L10.6581 7.5258 L10.6944 7.5395 L10.7294 7.5559 L10.7629 7.5749 L10.7948 7.5965 L10.8250 7.6205 L10.8533 7.6467 L10.8795 7.6750 L10.9035 7.7052 L10.9251 7.7371 L10.9441 7.7706 L10.9605 7.8056 L10.9742 7.8419 L10.9851 7.8794 L10.9930 7.9183 L10.9979 7.9584 L11.0000 8.0101 L11.0000 8.0769 L11.0000 9.9899 L10.9979 10.0416 L10.9930 10.0817 L10.9851 10.1206 L10.9742 10.1581 L10.9605 10.1944 L10.9441 10.2294 L10.9251 10.2629 L10.9035 10.2948 L10.8795 10.3250 L10.8533 10.3533 L10.8250 10.3795 L10.7948 10.4035 L10.7629 10.4251 L10.7294 10.4441 L10.6944 10.4605 L10.6581 10.4742 L10.6206 10.4851 L10.5817 10.4930 L10.5416 10.4979 L10.4899 10.5000 L8.5101 10.5000 L8.4584 10.4979 L8.4183 10.4930 L8.3794 10.4851 Z M1.3794 12.9851 L1.3419 12.9742 L1.3056 12.9605 L1.2706 12.9441 L1.2371 12.9251 L1.2052 12.9035 L1.1750 12.8795 L1.1467 12.8533 L1.1205 12.8250 L1.0965 12.7948 L1.0749 12.7629 L1.0559 12.7294 L1.0395 12.6944 L1.0258 12.6581 L1.0149 12.6206 L1.0070 12.5817 L1.0021 12.5416 L1.0000 12.4899 L1.0000 10.5101 L1.0021 10.4584 L1.0070 10.4183 L1.0149 10.3794 L1.0258 10.3419 L1.0395 10.3056 L1.0559 10.2707 L1.0749 10.2371 L1.0965 10.2052 L1.1205 10.1750 L1.1467 10.1467 L1.1750 10.1205 L1.2052 10.0965 L1.2371 10.0749 L1.2707 10.0559 L1.3056 10.0395 L1.3419 10.0258 L1.3794 10.0149 L1.4183 10.0070 L1.4584 10.0021 L1.5101 10.0000 L3.4899 10.0000 L3.5416 10.0021 L3.5817 10.0070 L3.6206 10.0149 L3.6581 10.0258 L3.6944 10.0395 L3.7293 10.0559 L3.7629 10.0749 L3.7948 10.0965 L3.8250 10.1205 L3.8533 10.1467 L3.8795 10.1750 L3.9035 10.2052 L3.9251 10.2371 L3.9441 10.2707 L3.9605 10.3056 L3.9742 10.3419 L3.9851 10.3794 L3.9930 10.4183 L3.9979 10.4584 L4.0000 10.5101 L4.0000 12.4899 L3.9979 12.5416 L3.9930 12.5817 L3.9851 12.6206 L3.9742 12.6581 L3.9605 12.6944 L3.9441 12.7294 L3.9251 12.7629 L3.9035 12.7948 L3.8795 12.8250 L3.8533 12.8533 L3.8250 12.8795 L3.7948 12.9035 L3.7629 12.9251 L3.7293 12.9441 L3.6944 12.9605 L3.6581 12.9742 L3.6206 12.9851 L3.5817 12.9930 L3.5416 12.9979 L3.4899 13.0000 L1.5101 13.0000 L1.4584 12.9979 L1.4183 12.9930 L1.3794 12.9851 Z"></path></svg>