<svg xmlns="http://www.w3.org/2000/svg" fill="none" viewBox="0 0 14 14"><path fill="currentColor" fill-rule="evenodd" clip-rule="evenodd" d="M11.2793 10.5030 L11.2816 10.4999 L11.3302 10.4348 L11.3326 10.4316 L11.3807 10.3660 L11.3830 10.3627 L11.4307 10.2966 L11.4331 10.2933 L11.4803 10.2266 L11.4827 10.2232 L11.5295 10.1561 L11.5319 10.1526 L11.5781 10.0850 L11.5805 10.0815 L11.6262 10.0133 L11.6286 10.0097 L11.6738 9.9411 L11.6763 9.9374 L11.7209 9.8684 L11.7233 9.8646 L11.7674 9.7950 L11.7698 9.7911 L11.8133 9.7211 L11.8157 9.7172 L11.8585 9.6467 L11.8610 9.6426 L11.9032 9.5717 L11.9056 9.5675 L11.9472 9.4961 L11.9496 9.4919 L11.9906 9.4200 L11.9930 9.4157 L12.0332 9.3433 L12.0356 9.3389 L12.0752 9.2661 L12.0776 9.2616 L12.1164 9.1884 L12.1188 9.1838 L12.1569 9.1101 L12.1593 9.1054 L12.1966 9.0312 L12.1990 9.0264 L12.2355 8.9518 L12.2379 8.9469 L12.2736 8.8719 L12.2760 8.8669 L12.3109 8.7915 L12.3132 8.7863 L12.3473 8.7105 L12.3496 8.7052 L12.3829 8.6289 L12.3852 8.6236 L12.4175 8.5468 L12.4198 8.5414 L12.4513 8.4642 L12.4535 8.4587 L12.4841 8.3811 L12.4863 8.3755 L12.5160 8.2975 L12.5181 8.2917 L12.5468 8.2133 L12.5490 8.2074 L12.5767 8.1286 L12.5788 8.1226 L12.6056 8.0434 L12.6076 8.0373 L12.6334 7.9577 L12.6354 7.9515 L12.6602 7.8714 L12.6621 7.8651 L12.6858 7.7847 L12.6877 7.7783 L12.7104 7.6974 L12.7122 7.6909 L12.7338 7.6097 L12.7355 7.6031 L12.7561 7.5215 L12.7577 7.5147 L12.7772 7.4327 L12.7787 7.4259 L12.7971 7.3435 L12.7985 7.3366 L12.8157 7.2538 L12.8171 7.2468 L12.8332 7.1637 L12.8345 7.1565 L12.8493 7.0730 L12.8506 7.0658 L12.8642 6.9819 L12.8653 6.9746 L12.8778 6.8903 L12.8788 6.8830 L12.8900 6.7983 L12.8910 6.7909 L12.9009 6.7059 L12.9018 6.6983 L12.9104 6.6130 L12.9112 6.6054 L12.9186 6.5196 L12.9192 6.5120 L12.9253 6.4259 L12.9258 6.4181 L12.9305 6.3317 L12.9309 6.3239 L12.9343 6.2372 L12.9346 6.2293 L12.9367 6.1422 L12.9368 6.1342 L12.9375 6.0468 L12.9375 6.0362 L12.9354 5.8836 L12.9351 5.8704 L12.9291 5.7188 L12.9284 5.7056 L12.9184 5.5551 L12.9173 5.5420 L12.9034 5.3926 L12.9021 5.3795 L12.8843 5.2313 L12.8826 5.2182 L12.8611 5.0713 L12.8590 5.0583 L12.8337 4.9126 L12.8313 4.8997 L12.8023 4.7554 L12.7996 4.7425 L12.7669 4.5996 L12.7639 4.5869 L12.7277 4.4454 L12.7243 4.4328 L12.6845 4.2928 L12.6808 4.2803 L12.6376 4.1418 L12.6335 4.1295 L12.5869 3.9926 L12.5825 3.9804 L12.5325 3.8452 L12.5278 3.8332 L12.4745 3.6997 L12.4695 3.6878 L12.4129 3.5560 L12.4076 3.5443 L12.3477 3.4143 L12.3422 3.4027 L12.2791 3.2747 L12.2733 3.2633 L12.2071 3.1371 L12.2011 3.1259 L12.1318 3.0017 L12.1254 2.9906 L12.0532 2.8685 L12.0465 2.8576 L11.9713 2.7375 L11.9644 2.7268 L11.8862 2.6089 L11.8791 2.5984 L11.7980 2.4826 L11.7906 2.4723 L11.7068 2.3587 L11.6991 2.3486 L11.6125 2.2374 L11.6045 2.2275 L11.5152 2.1185 L11.5071 2.1088 L11.4151 2.0023 L11.4067 1.9928 L11.3121 1.8887 L11.3034 1.8795 L11.2063 1.7779 L11.1974 1.7688 L11.0977 1.6698 L11.0886 1.6609 L10.9865 1.5645 L10.9771 1.5559 L10.8726 1.4621 L10.8630 1.4537 L10.7562 1.3627 L10.7463 1.3545 L10.6372 1.2662 L10.6271 1.2583 L10.5158 1.1728 L10.5055 1.1651 L10.3919 1.0825 L10.3814 1.0750 L10.2657 0.9954 L10.2549 0.9882 L10.1371 0.9115 L10.1262 0.9045 L10.0063 0.8308 L9.9952 0.8242 L9.8734 0.7536 L9.8620 0.7472 L9.7382 0.6797 L9.7267 0.6736 L9.6010 0.6093 L9.5892 0.6035 L9.4618 0.5424 L9.4498 0.5369 L9.3206 0.4791 L9.3084 0.4739 L9.1774 0.4194 L9.1651 0.4145 L9.0325 0.3635 L9.0200 0.3589 L8.8857 0.3113 L8.8730 0.3070 L8.7372 0.2629 L8.7243 0.2589 L8.5870 0.2184 L8.5740 0.2148 L8.4352 0.1779 L8.4221 0.1746 L8.2819 0.1413 L8.2686 0.1384 L8.1270 0.1088 L8.1136 0.1062 L7.9708 0.0805 L7.9573 0.0782 L7.8131 0.0563 L7.7996 0.0544 L7.6542 0.0363 L7.6406 0.0348 L7.4941 0.0207 L7.4804 0.0196 L7.3327 0.0094 L7.3190 0.0086 L7.1703 0.0025 L7.1566 0.0021 L7.0069 0.0000 L6.9960 0.0000 L6.9081 0.0007 L6.9000 0.0009 L6.8124 0.0030 L6.8043 0.0032 L6.7171 0.0068 L6.7090 0.0072 L6.6221 0.0121 L6.6141 0.0126 L6.5276 0.0189 L6.5195 0.0195 L6.4334 0.0272 L6.4254 0.0280 L6.3396 0.0370 L6.3316 0.0379 L6.2463 0.0483 L6.2383 0.0493 L6.1534 0.0610 L6.1454 0.0622 L6.0609 0.0752 L6.0530 0.0765 L5.9689 0.0909 L5.9611 0.0923 L5.8774 0.1080 L5.8696 0.1095 L5.7864 0.1265 L5.7786 0.1281 L5.6958 0.1464 L5.6881 0.1481 L5.6058 0.1677 L5.5981 0.1696 L5.5163 0.1903 L5.5086 0.1924 L5.4274 0.2144 L5.4197 0.2165 L5.3390 0.2398 L5.3314 0.2420 L5.2511 0.2666 L5.2436 0.2689 L5.1639 0.2946 L5.1564 0.2971 L5.0772 0.3241 L5.0698 0.3266 L4.9911 0.3548 L4.9838 0.3575 L4.9057 0.3868 L4.8984 0.3896 L4.8208 0.4201 L4.8136 0.4230 L4.7366 0.4547 L4.7295 0.4577 L4.6531 0.4906 L4.6460 0.4937 L4.5702 0.5277 L4.5632 0.5309 L4.4880 0.5660 L4.4810 0.5693 L4.4065 0.6056 L4.3996 0.6090 L4.3257 0.6463 L4.3188 0.6499 L4.2456 0.6883 L4.2388 0.6919 L4.1662 0.7315 L4.1595 0.7352 L4.0875 0.7758 L4.0809 0.7796 L4.0096 0.8214 L4.0030 0.8253 L3.9324 0.8680 L3.9259 0.8720 L3.8560 0.9158 L3.8496 0.9199 L3.7804 0.9648 L3.7740 0.9689 L3.7055 1.0148 L3.6993 1.0191 L3.6315 1.0660 L3.6253 1.0703 L3.5583 1.1182 L3.5522 1.1227 L3.4859 1.1716 L3.4798 1.1761 L3.4143 1.2260 L3.4083 1.2306 L3.3436 1.2815 L3.3377 1.2862 L3.2737 1.3380 L3.2679 1.3428 L3.2047 1.3955 L3.1990 1.4004 L3.1365 1.4541 L3.1309 1.4590 L3.0693 1.5137 L3.0637 1.5187 L3.0029 1.5743 L2.9975 1.5794 L2.9375 1.6359 L2.9321 1.6410 L2.8730 1.6984 L2.8677 1.7037 L2.8094 1.7620 L2.8042 1.7673 L2.7467 1.8264 L2.7416 1.8318 L2.6850 1.8919 L2.6800 1.8973 L2.6439 1.9368 L2.5888 1.8816 L2.3722 1.6650 L2.1556 1.4484 L1.9390 1.2318 L1.5058 0.7986 L1.2892 0.5821 L1.0727 0.3655 L0.8561 0.1489 L0.7803 0.0867 L0.6939 0.0405 L0.6001 0.0120 L0.5025 0.0024 L0.4050 0.0120 L0.3112 0.0405 L0.2247 0.0867 L0.1490 0.1489 L0.0868 0.2247 L0.0406 0.3111 L0.0121 0.4049 L0.0025 0.5024 L0.0121 0.6000 L0.0406 0.6938 L0.0868 0.7802 L0.1490 0.8560 L0.3656 1.0726 L0.5821 1.2892 L0.7987 1.5057 L1.2319 1.9389 L1.4485 2.1555 L1.6651 2.3721 L1.8816 2.5887 L2.3148 3.0218 L2.5314 3.2384 L2.7480 3.4550 L2.9646 3.6716 L3.1812 3.8882 L3.3977 4.1048 L3.6143 4.3213 L3.8309 4.5379 L4.0475 4.7545 L4.2641 4.9711 L4.4807 5.1877 L4.6972 5.4043 L4.9138 5.6208 L5.1304 5.8374 L5.3470 6.0540 L5.5636 6.2706 L5.7802 6.4872 L6.2133 6.9204 L6.4299 7.1369 L6.6465 7.3535 L6.8631 7.5701 L7.0797 7.7867 L7.2963 8.0033 L7.5128 8.2199 L7.7294 8.4364 L7.9460 8.6530 L8.1626 8.8696 L8.3792 9.0862 L8.5958 9.3028 L8.8124 9.5194 L9.0289 9.7360 L9.2455 9.9525 L9.4621 10.1691 L9.6787 10.3857 L9.8953 10.6023 L10.1119 10.8189 L10.3284 11.0355 L10.5450 11.2520 L10.7616 11.4686 L10.9782 11.6852 L11.1948 11.9018 L11.4114 12.1184 L11.6280 12.3350 L11.8445 12.5515 L12.0611 12.7681 L12.4943 13.2013 L12.7109 13.4179 L12.9275 13.6345 L13.1440 13.8511 L13.2198 13.9132 L13.3063 13.9594 L13.4001 13.9879 L13.4976 13.9975 L13.5951 13.9879 L13.6889 13.9594 L13.7754 13.9132 L13.8512 13.8511 L13.9133 13.7753 L13.9595 13.6888 L13.9880 13.5950 L13.9976 13.4975 L13.9880 13.4000 L13.9595 13.3062 L13.9133 13.2197 L13.8512 13.1439 L13.6346 12.9274 L13.4180 12.7108 L13.2014 12.4942 L12.7682 12.0610 L12.5516 11.8444 L12.3351 11.6279 L12.1185 11.4113 L11.9019 11.1947 L11.6853 10.9781 L11.4687 10.7615 L11.2521 10.5449 L11.2495 10.5423 L11.2793 10.5030 Z M8.3661 7.5939 L8.3823 7.5832 L8.4466 7.5391 L8.4623 7.5278 L8.5247 7.4812 L8.5400 7.4693 L8.6005 7.4205 L8.6153 7.4080 L8.6738 7.3569 L8.6881 7.3439 L8.7446 7.2905 L8.7584 7.2770 L8.8127 7.2215 L8.8260 7.2075 L8.8782 7.1499 L8.8909 7.1353 L8.9408 7.0758 L8.9530 7.0607 L9.0006 6.9992 L9.0122 6.9836 L9.0575 6.9203 L9.0685 6.9042 L9.1113 6.8391 L9.1217 6.8226 L9.1621 6.7557 L9.1718 6.7387 L9.2096 6.6701 L9.2187 6.6527 L9.2539 6.5825 L9.2623 6.5647 L9.2948 6.4930 L9.3026 6.4748 L9.3322 6.4016 L9.3393 6.3830 L9.3662 6.3084 L9.3725 6.2894 L9.3965 6.2135 L9.4021 6.1942 L9.4230 6.1170 L9.4279 6.0974 L9.4458 6.0190 L9.4499 5.9991 L9.4647 5.9196 L9.4681 5.8995 L9.4797 5.8189 L9.4822 5.7987 L9.4906 5.7171 L9.4922 5.6967 L9.4973 5.6141 L9.4982 5.5937 L9.4999 5.5102 L9.4999 5.4896 L9.4981 5.4051 L9.4972 5.3843 L9.4920 5.3007 L9.4903 5.2800 L9.4817 5.1973 L9.4791 5.1768 L9.4672 5.0952 L9.4638 5.0748 L9.4486 4.9943 L9.4444 4.9742 L9.4260 4.8948 L9.4210 4.8750 L9.3995 4.7968 L9.3937 4.7773 L9.3692 4.7005 L9.3626 4.6813 L9.3351 4.6058 L9.3278 4.5870 L9.2974 4.5130 L9.2894 4.4946 L9.2561 4.4221 L9.2474 4.4041 L9.2114 4.3332 L9.2020 4.3157 L9.1633 4.2465 L9.1533 4.2293 L9.1119 4.1618 L9.1012 4.1452 L9.0573 4.0795 L9.0461 4.0633 L8.9997 3.9995 L8.9878 3.9839 L8.9390 3.9220 L8.9265 3.9068 L8.8753 3.8469 L8.8623 3.8323 L8.8089 3.7744 L8.7953 3.7603 L8.7396 3.7047 L8.7255 3.6911 L8.6677 3.6376 L8.6531 3.6246 L8.5932 3.5734 L8.5780 3.5610 L8.5161 3.5122 L8.5005 3.5003 L8.4366 3.4539 L8.4205 3.4426 L8.3548 3.3987 L8.3381 3.3881 L8.2706 3.3467 L8.2535 3.3367 L8.1843 3.2980 L8.1667 3.2886 L8.0958 3.2526 L8.0778 3.2439 L8.0054 3.2106 L7.9869 3.2026 L7.9129 3.1722 L7.8941 3.1649 L7.8187 3.1374 L7.7995 3.1308 L7.7227 3.1063 L7.7032 3.1005 L7.6250 3.0790 L7.6052 3.0740 L7.5258 3.0556 L7.5057 3.0514 L7.4252 3.0362 L7.4048 3.0328 L7.3232 3.0208 L7.3026 3.0183 L7.2200 3.0097 L7.1993 3.0079 L7.1156 3.0027 L7.0949 3.0019 L7.0103 3.0001 L6.9897 3.0001 L6.9063 3.0018 L6.8858 3.0027 L6.8033 3.0077 L6.7829 3.0094 L6.7013 3.0178 L6.6810 3.0203 L6.6004 3.0319 L6.5804 3.0352 L6.5008 3.0500 L6.4810 3.0541 L6.4026 3.0720 L6.3830 3.0769 L6.3058 3.0979 L6.2865 3.1035 L6.2106 3.1274 L6.1916 3.1338 L6.1170 3.1606 L6.0984 3.1677 L6.0252 3.1974 L6.0070 3.2052 L5.9353 3.2376 L5.9174 3.2461 L5.8473 3.2812 L5.8299 3.2904 L5.7613 3.3281 L5.7443 3.3379 L5.6774 3.3783 L5.6609 3.3887 L5.5957 3.4315 L5.5797 3.4425 L5.5163 3.4878 L5.5008 3.4993 L5.4393 3.5470 L5.4242 3.5591 L5.3646 3.6091 L5.3501 3.6218 L5.2925 3.6740 L5.2785 3.6872 L5.2230 3.7416 L5.2095 3.7554 L5.1561 3.8119 L5.1431 3.8261 L5.0920 3.8847 L5.0795 3.8995 L5.0306 3.9599 L5.0188 3.9752 L4.9722 4.0376 L4.9609 4.0534 L4.9168 4.1176 L4.9060 4.1339 L4.8809 4.1737 L4.7546 4.0474 L4.5380 3.8308 L4.3214 3.6142 L4.1048 3.3977 L3.8883 3.1811 L3.6717 2.9645 L3.4551 2.7479 L3.3520 2.6448 L3.3649 2.6302 L3.4156 2.5748 L3.4670 2.5202 L3.5192 2.4664 L3.5722 2.4134 L3.6260 2.3612 L3.6805 2.3098 L3.7358 2.2592 L3.7918 2.2096 L3.8485 2.1607 L3.9060 2.1127 L3.9641 2.0656 L4.0230 2.0194 L4.0825 1.9741 L4.1428 1.9297 L4.2036 1.8862 L4.2652 1.8436 L4.3274 1.8019 L4.3902 1.7612 L4.4537 1.7214 L4.5178 1.6826 L4.5825 1.6447 L4.6478 1.6079 L4.7137 1.5720 L4.7801 1.5371 L4.8472 1.5032 L4.9148 1.4704 L4.9829 1.4385 L5.0516 1.4077 L5.1209 1.3780 L5.1906 1.3493 L5.2609 1.3216 L5.3317 1.2950 L5.4029 1.2695 L5.4747 1.2451 L5.5469 1.2218 L5.6197 1.1996 L5.6928 1.1785 L5.7665 1.1586 L5.8406 1.1397 L5.9151 1.1220 L5.9900 1.1055 L6.0654 1.0901 L6.1412 1.0760 L6.2174 1.0629 L6.2940 1.0511 L6.3710 1.0405 L6.4483 1.0311 L6.5261 1.0229 L6.6042 1.0160 L6.6827 1.0102 L6.7615 1.0058 L6.8407 1.0026 L6.9202 1.0007 L6.9986 1.0000 L7.1359 1.0019 L7.2709 1.0075 L7.4048 1.0167 L7.5376 1.0295 L7.6694 1.0459 L7.8000 1.0658 L7.9295 1.0892 L8.0578 1.1159 L8.1848 1.1460 L8.3105 1.1795 L8.4350 1.2162 L8.5580 1.2561 L8.6797 1.2992 L8.7999 1.3454 L8.9186 1.3948 L9.0357 1.4471 L9.1513 1.5025 L9.2653 1.5608 L9.3775 1.6220 L9.4881 1.6861 L9.5969 1.7530 L9.7038 1.8226 L9.8089 1.8950 L9.9120 1.9700 L10.0132 2.0477 L10.1124 2.1279 L10.2095 2.2107 L10.3045 2.2959 L10.3973 2.3836 L10.4880 2.4736 L10.5763 2.5660 L10.6624 2.6607 L10.7460 2.7576 L10.8273 2.8567 L10.9061 2.9579 L10.9824 3.0612 L11.0562 3.1666 L11.1273 3.2739 L11.1958 3.3832 L11.2616 3.4944 L11.3246 3.6074 L11.3849 3.7222 L11.4423 3.8388 L11.4968 3.9570 L11.5483 4.0769 L11.5969 4.1984 L11.6425 4.3215 L11.6850 4.4461 L11.7243 4.5721 L11.7605 4.6996 L11.7935 4.8284 L11.8232 4.9586 L11.8495 5.0900 L11.8726 5.2228 L11.8922 5.3567 L11.9084 5.4917 L11.9210 5.6279 L11.9301 5.7652 L11.9356 5.9035 L11.9375 6.0442 L11.9369 6.1223 L11.9350 6.2015 L11.9318 6.2805 L11.9275 6.3591 L11.9219 6.4374 L11.9152 6.5155 L11.9073 6.5933 L11.8982 6.6707 L11.8880 6.7480 L11.8766 6.8249 L11.8641 6.9015 L11.8506 6.9779 L11.8359 7.0540 L11.8201 7.1298 L11.8033 7.2054 L11.7855 7.2806 L11.7666 7.3556 L11.7467 7.4302 L11.7258 7.5046 L11.7039 7.5787 L11.6811 7.6525 L11.6573 7.7261 L11.6325 7.7993 L11.6068 7.8722 L11.5802 7.9448 L11.5527 8.0171 L11.5243 8.0891 L11.4951 8.1608 L11.4649 8.2322 L11.4340 8.3032 L11.4022 8.3739 L11.3696 8.4443 L11.3363 8.5144 L11.3021 8.5841 L11.2672 8.6535 L11.2315 8.7225 L11.1951 8.7912 L11.1580 8.8595 L11.1202 8.9275 L11.0818 8.9951 L11.0426 9.0624 L11.0028 9.1292 L10.9624 9.1957 L10.9214 9.2618 L10.8798 9.3275 L10.8375 9.3928 L10.7948 9.4578 L10.7515 9.5223 L10.7076 9.5864 L10.6633 9.6501 L10.6184 9.7134 L10.5731 9.7763 L10.5352 9.8280 L10.3858 9.6786 L10.1692 9.4620 L9.9526 9.2454 L9.7360 9.0288 L9.5195 8.8123 L9.3029 8.5957 L9.0863 8.3791 L8.8697 8.1625 L8.6531 7.9459 L8.4365 7.7293 L8.3263 7.6191 L8.3661 7.5939 Z M5.6331 4.8813 L5.6584 4.8282 L5.6858 4.7763 L5.7151 4.7255 L5.7464 4.6760 L5.7795 4.6278 L5.8145 4.5810 L5.8512 4.5356 L5.8896 4.4916 L5.9297 4.4492 L5.9714 4.4083 L6.0147 4.3691 L6.0594 4.3315 L6.1056 4.2958 L6.1532 4.2618 L6.2021 4.2296 L6.2522 4.1994 L6.3036 4.1711 L6.3562 4.1448 L6.4099 4.1205 L6.4647 4.0983 L6.5205 4.0782 L6.5772 4.0604 L6.6350 4.0447 L6.6937 4.0313 L6.7532 4.0202 L6.8137 4.0115 L6.8749 4.0052 L6.9370 4.0014 L6.9999 4.0001 L7.0638 4.0014 L7.1267 4.0054 L7.1888 4.0118 L7.2500 4.0208 L7.3103 4.0321 L7.3697 4.0459 L7.4281 4.0620 L7.4856 4.0803 L7.5420 4.1009 L7.5974 4.1237 L7.6517 4.1486 L7.7048 4.1756 L7.7566 4.2046 L7.8073 4.2356 L7.8566 4.2685 L7.9045 4.3034 L7.9510 4.3401 L7.9960 4.3785 L8.0394 4.4187 L8.0813 4.4605 L8.1215 4.5040 L8.1599 4.5490 L8.1966 4.5955 L8.2314 4.6434 L8.2644 4.6927 L8.2954 4.7433 L8.3244 4.7952 L8.3514 4.8483 L8.3763 4.9026 L8.3991 4.9579 L8.4196 5.0144 L8.4380 5.0718 L8.4541 5.1303 L8.4678 5.1897 L8.4792 5.2500 L8.4881 5.3112 L8.4946 5.3733 L8.4985 5.4362 L8.4999 5.5001 L8.4986 5.5629 L8.4948 5.6250 L8.4885 5.6863 L8.4797 5.7467 L8.4687 5.8063 L8.4553 5.8650 L8.4396 5.9227 L8.4217 5.9795 L8.4017 6.0353 L8.3795 6.0901 L8.3552 6.1438 L8.3289 6.1963 L8.3006 6.2477 L8.2703 6.2979 L8.2382 6.3468 L8.2042 6.3944 L8.1684 6.4406 L8.1309 6.4853 L8.0917 6.5286 L8.0508 6.5703 L8.0084 6.6104 L7.9644 6.6488 L7.9190 6.6855 L7.8721 6.7205 L7.8239 6.7536 L7.7744 6.7848 L7.7237 6.8142 L7.6717 6.8416 L7.6186 6.8669 L7.5875 6.8803 L7.5702 6.8630 L7.3536 6.6464 L7.1370 6.4298 L6.9204 6.2132 L6.4873 5.7801 L6.2707 5.5635 L6.0541 5.3469 L5.8375 5.1303 L5.6209 4.9137 L5.6197 4.9125 L5.6331 4.8813 Z M1.2525 4.5212 L1.2508 4.5278 L1.2324 4.6023 L1.2308 4.6090 L1.2134 4.6839 L1.2118 4.6906 L1.1954 4.7659 L1.1940 4.7726 L1.1786 4.8482 L1.1773 4.8550 L1.1629 4.9310 L1.1616 4.9378 L1.1483 5.0142 L1.1471 5.0210 L1.1348 5.0978 L1.1337 5.1046 L1.1224 5.1817 L1.1214 5.1885 L1.1112 5.2660 L1.1103 5.2729 L1.1011 5.3506 L1.1003 5.3575 L1.0922 5.4356 L1.0915 5.4425 L1.0844 5.5209 L1.0838 5.5278 L1.0778 5.6066 L1.0773 5.6135 L1.0723 5.6925 L1.0719 5.6995 L1.0681 5.7788 L1.0678 5.7858 L1.0650 5.8654 L1.0648 5.8723 L1.0632 5.9522 L1.0631 5.9592 L1.0625 6.0394 L1.0626 6.0511 L1.0656 6.2323 L1.0661 6.2486 L1.0749 6.4284 L1.0760 6.4445 L1.0905 6.6227 L1.0921 6.6385 L1.1121 6.8152 L1.1141 6.8306 L1.1396 7.0058 L1.1420 7.0209 L1.1727 7.1944 L1.1755 7.2091 L1.2112 7.3810 L1.2144 7.3952 L1.2549 7.5655 L1.2584 7.5793 L1.3037 7.7479 L1.3075 7.7613 L1.3574 7.9282 L1.3614 7.9411 L1.4156 8.1062 L1.4199 8.1187 L1.4784 8.2821 L1.4828 8.2940 L1.5453 8.4556 L1.5499 8.4671 L1.6163 8.6269 L1.6211 8.6380 L1.6912 8.7959 L1.6961 8.8065 L1.7698 8.9626 L1.7747 8.9728 L1.8518 9.1269 L1.8568 9.1367 L1.9372 9.2889 L1.9422 9.2982 L2.0256 9.4485 L2.0307 9.4574 L2.1170 9.6057 L2.1221 9.6142 L2.2112 9.7606 L2.2162 9.7687 L2.3079 9.9130 L2.3130 9.9207 L2.4071 10.0629 L2.4121 10.0703 L2.5084 10.2105 L2.5134 10.2175 L2.6118 10.3555 L2.6167 10.3623 L2.7171 10.4982 L2.7220 10.5046 L2.8241 10.6383 L2.8289 10.6444 L2.9327 10.7759 L2.9374 10.7818 L3.0426 10.9111 L3.0472 10.9167 L3.1537 11.0437 L3.1583 11.0491 L3.2658 11.1738 L3.2703 11.1789 L3.3789 11.3013 L3.3833 11.3062 L3.4926 11.4263 L3.4969 11.4310 L3.6069 11.5487 L3.6111 11.5531 L3.7215 11.6684 L3.7257 11.6727 L3.8363 11.7856 L3.8404 11.7897 L3.9512 11.9001 L3.9552 11.9041 L4.0660 12.0120 L4.0699 12.0158 L4.1805 12.1212 L4.1843 12.1248 L4.2946 12.2277 L4.2983 12.2312 L4.4080 12.3315 L4.4117 12.3348 L4.5207 12.4326 L4.5243 12.4358 L4.6324 12.5309 L4.6359 12.5340 L4.7431 12.6265 L4.7465 12.6294 L4.8525 12.7192 L4.8558 12.7220 L4.9605 12.8092 L4.9637 12.8119 L5.0668 12.8963 L5.0700 12.8989 L5.1715 12.9805 L5.1746 12.9830 L5.2742 13.0618 L5.2773 13.0643 L5.3749 13.1403 L5.3779 13.1426 L5.4733 13.2158 L5.4763 13.2181 L5.5694 13.2884 L5.5723 13.2905 L5.6629 13.3580 L5.6657 13.3601 L5.7537 13.4246 L5.7564 13.4266 L5.8416 13.4882 L5.8442 13.4901 L5.9264 13.5487 L5.9290 13.5505 L6.0081 13.6061 L6.0106 13.6079 L6.0864 13.6605 L6.0889 13.6622 L6.1611 13.7117 L6.1636 13.7134 L6.2322 13.7598 L6.2512 13.7721 L6.3161 13.8118 L6.3532 13.8324 L6.4203 13.8661 L6.4589 13.8835 L6.5279 13.9110 L6.5678 13.9250 L6.6382 13.9464 L6.6791 13.9570 L6.7506 13.9723 L6.7922 13.9794 L6.8644 13.9886 L6.9064 13.9921 L6.9789 13.9952 L7.0211 13.9952 L7.0936 13.9921 L7.1356 13.9886 L7.2078 13.9794 L7.2494 13.9723 L7.3209 13.9570 L7.3618 13.9464 L7.4322 13.9250 L7.4721 13.9110 L7.5411 13.8835 L7.5797 13.8661 L7.6468 13.8324 L7.6839 13.8118 L7.7488 13.7721 L7.7675 13.7601 L7.8134 13.7290 L7.8151 13.7279 L7.8627 13.6955 L7.8644 13.6943 L7.9137 13.6605 L7.9154 13.6593 L7.9662 13.6240 L7.9679 13.6228 L8.0203 13.5862 L8.0221 13.5850 L8.0760 13.5470 L8.0777 13.5457 L8.1331 13.5063 L8.1349 13.5050 L8.1916 13.4643 L8.1934 13.4630 L8.2514 13.4208 L8.2533 13.4195 L8.3126 13.3760 L8.3145 13.3747 L8.3750 13.3299 L8.3769 13.3284 L8.4386 13.2823 L8.4406 13.2809 L8.5034 13.2334 L8.5054 13.2319 L8.5693 13.1832 L8.5713 13.1817 L8.6363 13.1316 L8.6383 13.1300 L8.7042 13.0787 L8.7063 13.0771 L8.7731 13.0244 L8.7752 13.0228 L8.8430 12.9689 L8.8451 12.9672 L8.9137 12.9120 L8.9158 12.9103 L8.9852 12.8538 L8.9873 12.8520 L9.0574 12.7943 L9.0596 12.7925 L9.1304 12.7336 L9.1326 12.7317 L9.2040 12.6715 L9.2063 12.6696 L9.2782 12.6082 L9.2805 12.6062 L9.3530 12.5436 L9.3554 12.5415 L9.4283 12.4777 L9.4307 12.4756 L9.5040 12.4106 L9.5065 12.4084 L9.5802 12.3422 L9.6463 12.2699 L9.6971 12.1860 L9.7305 12.0939 L9.7454 11.9970 L9.7410 11.8991 L9.7176 11.8039 L9.6761 11.7151 L9.6181 11.6361 L9.5458 11.5700 L9.4619 11.5192 L9.3698 11.4857 L9.2729 11.4709 L9.1750 11.4753 L9.0798 11.4987 L8.9910 11.5402 L8.9120 11.5982 L8.8395 11.6633 L8.7685 11.7262 L8.6980 11.7879 L8.6279 11.8485 L8.5583 11.9080 L8.4892 11.9662 L8.4207 12.0233 L8.3528 12.0791 L8.2856 12.1338 L8.2192 12.1873 L8.1536 12.2395 L8.0888 12.2905 L8.0249 12.3403 L7.9619 12.3888 L7.9000 12.4360 L7.8391 12.4820 L7.7793 12.5267 L7.7206 12.5701 L7.6632 12.6121 L7.6070 12.6529 L7.5521 12.6924 L7.4986 12.7305 L7.4464 12.7673 L7.3957 12.8027 L7.3466 12.8368 L7.2990 12.8695 L7.2530 12.9008 L7.2170 12.9251 L7.1796 12.9480 L7.1504 12.9627 L7.1208 12.9745 L7.0909 12.9836 L7.0608 12.9900 L7.0304 12.9939 L7.0000 12.9952 L6.9696 12.9939 L6.9392 12.9900 L6.9091 12.9836 L6.8792 12.9745 L6.8496 12.9627 L6.8204 12.9480 L6.7832 12.9252 L6.7251 12.8860 L6.6554 12.8382 L6.5822 12.7874 L6.5057 12.7336 L6.4262 12.6769 L6.3437 12.6172 L6.2585 12.5547 L6.1707 12.4894 L6.0805 12.4212 L5.9880 12.3503 L5.8934 12.2766 L5.7969 12.2002 L5.6986 12.1211 L5.5987 12.0393 L5.4974 11.9550 L5.3948 11.8680 L5.2912 11.7785 L5.1865 11.6865 L5.0811 11.5920 L4.9751 11.4950 L4.8687 11.3956 L4.7619 11.2939 L4.6551 11.1898 L4.5483 11.0834 L4.4417 10.9747 L4.3355 10.8638 L4.2299 10.7507 L4.1249 10.6354 L4.0208 10.5180 L3.9177 10.3985 L3.8159 10.2770 L3.7153 10.1535 L3.6163 10.0280 L3.5190 9.9006 L3.4235 9.7714 L3.3299 9.6403 L3.2386 9.5074 L3.1495 9.3727 L3.0628 9.2364 L2.9788 9.0984 L2.8975 8.9587 L2.8191 8.8175 L2.7438 8.6748 L2.6716 8.5305 L2.6028 8.3848 L2.5375 8.2376 L2.4757 8.0891 L2.4178 7.9392 L2.3637 7.7880 L2.3136 7.6355 L2.2677 7.4818 L2.2261 7.3268 L2.1888 7.1705 L2.1561 7.0131 L2.1281 6.8544 L2.1049 6.6946 L2.0866 6.5335 L2.0733 6.3712 L2.0653 6.2076 L2.0625 6.0404 L2.0630 5.9696 L2.0645 5.8967 L2.0671 5.8240 L2.0706 5.7516 L2.0751 5.6795 L2.0806 5.6077 L2.0871 5.5362 L2.0945 5.4650 L2.1029 5.3941 L2.1123 5.3235 L2.1226 5.2532 L2.1339 5.1833 L2.1461 5.1137 L2.1592 5.0445 L2.1732 4.9756 L2.1882 4.9070 L2.2040 4.8388 L2.2208 4.7710 L2.2384 4.7035 L2.2579 4.6332 L2.2746 4.5366 L2.2721 4.4386 L2.2506 4.3430 L2.2109 4.2534 L2.1544 4.1733 L2.0834 4.1057 L2.0006 4.0533 L1.9091 4.0181 L1.8125 4.0013 L1.7145 4.0038 L1.6189 4.0253 L1.5293 4.0651 L1.4492 4.1215 L1.3816 4.1925 L1.3292 4.2754 L1.2940 4.3668 L1.2736 4.4405 L1.2718 4.4471 L1.2525 4.5212 Z"></path></svg>